{
    "asset" : {
        "generator" : "Khronos glTF Blender I/O v1.8.19",
        "version" : "2.0"
    },
    "scene" : 0,
    "scenes" : [
        {
            "name" : "Scene",
            "nodes" : [
                0
            ]
        }
    ],
    "nodes" : [
        {
            "mesh" : 0,
            "name" : "mocowania_delfin_plastik_mocowania_delfin_plastik_0",
            "rotation" : [
                -0.7071067690849304,
                0,
                0,
                0.7071067690849304
            ]
        }
    ],
    "meshes" : [
        {
            "name" : "mocowania_delfin_plastik_mocowania_delfin_plastik_0",
            "primitives" : [
                {
                    "attributes" : {
                        "POSITION" : 0,
                        "NORMAL" : 1,
                        "TEXCOORD_0" : 2,
                        "TEXCOORD_1" : 3
                    },
                    "indices" : 4
                }
            ]
        }
    ],
    "accessors" : [
        {
            "bufferView" : 0,
            "componentType" : 5126,
            "count" : 52029,
            "max" : [
                0.2500528395175934,
                0.08677541464567184,
                0.9997538924217224
            ],
            "min" : [
                -0.24994727969169617,
                -0.04521007835865021,
                -1.000246524810791
            ],
            "type" : "VEC3"
        },
        {
            "bufferView" : 1,
            "componentType" : 5126,
            "count" : 52029,
            "type" : "VEC3"
        },
        {
            "bufferView" : 2,
            "componentType" : 5126,
            "count" : 52029,
            "type" : "VEC2"
        },
        {
            "bufferView" : 3,
            "componentType" : 5126,
            "count" : 52029,
            "type" : "VEC2"
        },
        {
            "bufferView" : 4,
            "componentType" : 5123,
            "count" : 219318,
            "type" : "SCALAR"
        }
    ],
    "bufferViews" : [
        {
            "buffer" : 0,
            "byteLength" : 624348,
            "byteOffset" : 0
        },
        {
            "buffer" : 0,
            "byteLength" : 624348,
            "byteOffset" : 624348
        },
        {
            "buffer" : 0,
            "byteLength" : 416232,
            "byteOffset" : 1248696
        },
        {
            "buffer" : 0,
            "byteLength" : 416232,
            "byteOffset" : 1664928
        },
        {
            "buffer" : 0,
            "byteLength" : 438636,
            "byteOffset" : 2081160
        }
    ],
    "buffers" : [
        {
            "byteLength" : 2519796,
            "uri" : "data:application/octet-stream;base64,"
        }
    ]
}
