<?xml version="1.0" standalone="no"?>
<!DOCTYPE svg PUBLIC "-//W3C//DTD SVG 20010904//EN"
 "http://www.w3.org/TR/2001/REC-SVG-20010904/DTD/svg10.dtd">
<svg version="1.0" xmlns="http://www.w3.org/2000/svg"
 width="1088.000000pt" height="1088.000000pt" viewBox="0 0 1088.000000 1088.000000"
 preserveAspectRatio="xMidYMid meet">
<g transform="translate(0.000000,1088.000000) scale(0.100000,-0.100000)"
fill="#000000" stroke="none">
<path d="M1324 10852 c-20 -2 -33 -9 -36 -20 -3 -14 -2 -10404 1 -10523 l1
-37 36 8 c20 5 46 5 58 1 11 -5 31 -5 44 0 12 5 22 5 22 -1 0 -5 12 -5 29 0
15 4 34 4 42 0 7 -5 17 -6 22 -3 5 3 31 5 58 4 63 -2 63 -2 139 -2 36 1 73 1
83 1 9 0 42 0 72 1 31 1 58 -1 61 -4 4 -3 17 -2 30 3 14 6 24 6 24 0 0 -5 12
-5 29 0 15 4 34 4 42 0 7 -5 17 -6 22 -3 15 9 101 10 119 1 11 -5 18 -5 18 1
0 7 8 7 22 2 13 -5 33 -5 46 0 12 5 22 5 22 -1 0 -5 12 -5 29 0 15 4 34 4 41
0 7 -5 20 -6 28 -2 8 3 38 5 66 4 28 -1 60 -2 71 -1 11 0 26 0 33 0 26 -2 84
-2 187 -1 11 0 38 0 59 0 21 0 44 4 50 9 8 7 11 437 10 1538 l-1 1528 51 60
c28 33 60 70 71 84 11 13 29 34 40 47 11 12 28 34 38 47 10 14 35 43 55 65 21
22 44 48 52 58 8 11 82 100 165 199 82 99 156 188 165 198 8 10 24 29 35 41
11 12 36 42 55 66 19 23 42 50 50 59 8 9 33 38 55 66 22 27 47 56 55 65 8 9
33 38 55 65 22 26 45 53 50 59 6 6 30 36 55 66 25 30 50 60 55 66 6 6 27 31
46 54 18 23 39 47 44 54 6 6 57 67 115 136 57 69 131 157 165 196 33 40 78 93
100 120 22 26 45 52 50 58 6 6 42 49 80 96 38 47 75 91 82 98 9 10 24 -9 70
-88 32 -54 67 -114 77 -132 11 -18 20 -35 21 -38 3 -13 68 -121 76 -126 5 -3
7 -10 4 -15 -4 -5 -1 -9 4 -9 6 0 11 -4 11 -10 0 -5 18 -39 40 -75 22 -36 36
-65 32 -65 -4 0 -2 -4 4 -8 6 -4 22 -27 36 -52 14 -25 42 -73 62 -107 20 -34
36 -66 36 -71 0 -5 6 -15 13 -21 8 -6 24 -32 37 -58 14 -27 37 -67 52 -90 15
-23 28 -45 28 -48 0 -4 36 -67 80 -142 44 -74 80 -137 80 -139 0 -3 11 -21 23
-42 13 -20 35 -57 49 -82 14 -25 37 -65 52 -90 15 -25 29 -53 33 -62 3 -10 9
-18 14 -18 5 0 9 -5 9 -10 0 -6 41 -80 90 -166 50 -86 90 -160 90 -165 0 -5 5
-9 10 -9 6 0 10 -4 10 -9 0 -5 32 -64 71 -132 40 -68 83 -144 97 -169 13 -25
28 -49 32 -55 8 -10 40 -68 93 -165 16 -30 33 -59 37 -65 9 -12 143 -244 153
-265 4 -8 16 -28 27 -45 11 -16 26 -43 34 -60 9 -16 27 -48 41 -70 13 -22 28
-47 32 -55 4 -8 28 -52 55 -97 26 -45 48 -86 48 -92 0 -6 4 -11 8 -11 5 0 14
-12 21 -27 10 -23 144 -258 186 -328 7 -11 13 -24 14 -30 1 -5 8 -17 15 -25 7
-8 24 -35 37 -60 13 -25 27 -47 30 -50 3 -3 12 -20 20 -38 8 -17 17 -32 21
-32 5 0 8 -4 8 -9 0 -9 47 -94 85 -156 7 -11 12 -22 13 -25 1 -7 69 -123 80
-136 5 -6 13 -20 16 -32 4 -12 12 -22 17 -22 5 0 9 -5 9 -11 0 -7 19 -44 41
-83 56 -96 75 -129 100 -173 12 -21 43 -75 70 -121 27 -45 49 -85 49 -88 0 -3
14 -25 30 -49 17 -24 30 -46 30 -49 0 -6 65 -120 139 -244 17 -29 31 -55 31
-57 0 -4 58 -103 67 -114 2 -2 13 -5 26 -7 12 -1 22 -3 22 -4 0 -1 14 -2 32
-3 17 -1 29 2 26 6 -2 4 8 5 23 1 16 -4 33 -7 39 -6 49 7 113 6 128 0 10 -5
17 -5 17 1 0 7 8 7 23 2 12 -5 32 -5 44 0 13 5 23 5 23 -1 0 -5 12 -5 29 0 15
4 34 4 41 0 7 -5 20 -6 28 -2 8 3 38 5 66 4 28 -1 60 -2 71 -1 11 0 26 0 33 0
26 -2 75 -2 187 -1 89 0 119 -1 128 -7 6 -4 7 -1 2 7 -6 9 -2 10 16 4 13 -4
29 -7 34 -6 26 3 133 3 162 0 17 -2 29 0 27 4 -3 5 7 6 22 2 16 -4 33 -7 39
-6 22 3 122 3 152 0 17 -2 29 0 26 5 -3 5 4 6 18 1 13 -4 29 -7 34 -6 9 1 98
2 135 2 14 -1 118 -1 165 0 98 0 97 0 65 40 -11 14 -20 30 -20 37 0 6 -4 13
-8 15 -4 1 -26 34 -48 72 -47 83 -52 92 -134 229 -87 145 -94 157 -117 197
-11 19 -46 77 -77 128 -31 51 -56 97 -56 102 0 6 -4 10 -10 10 -5 0 -10 4 -10
9 0 8 -53 102 -108 189 -13 20 -25 45 -29 54 -3 10 -9 18 -14 18 -5 0 -9 5 -9
11 0 6 -12 30 -27 53 -16 22 -35 55 -43 71 -15 31 -53 92 -68 110 -4 6 -8 12
-8 15 0 3 -7 16 -16 30 -8 14 -43 72 -77 130 -34 58 -66 112 -71 120 -72 121
-167 279 -176 295 -6 11 -75 128 -154 260 -79 132 -157 263 -172 290 -16 28
-37 64 -47 80 -10 17 -68 114 -128 215 -61 102 -119 199 -129 217 -11 17 -38
64 -61 104 -24 39 -43 76 -43 80 0 5 -4 9 -10 9 -5 0 -10 4 -10 10 0 5 -15 33
-32 63 -18 29 -38 61 -45 72 -37 60 -63 109 -63 116 0 5 -4 9 -10 9 -5 0 -10
4 -10 9 0 5 -36 68 -80 141 -44 73 -80 134 -80 136 0 3 -12 23 -27 47 -15 23
-36 58 -46 77 -11 19 -24 38 -29 41 -5 3 -8 8 -7 10 2 2 -4 15 -13 29 -8 14
-46 77 -83 140 -37 63 -75 126 -84 140 -8 14 -16 27 -16 30 0 3 -12 23 -26 45
-22 34 -253 420 -279 465 -14 24 -147 248 -261 440 -57 96 -106 179 -109 185
-3 5 -20 35 -38 65 -36 61 -42 70 -89 147 -18 30 -33 55 -33 57 0 3 -22 41
-50 86 -27 45 -50 83 -50 85 0 2 -16 27 -35 56 -19 30 -35 57 -35 62 0 4 -5
13 -10 20 -18 21 -110 178 -110 188 0 5 -4 9 -10 9 -5 0 -12 11 -16 25 -3 14
-10 25 -15 25 -5 0 -9 4 -9 9 0 5 -25 51 -55 102 -30 51 -54 97 -53 101 3 7
164 203 188 228 8 9 27 31 41 50 15 19 38 49 53 65 43 49 50 57 97 115 24 30
46 57 49 60 3 3 75 88 160 190 84 102 157 187 162 188 4 2 8 10 8 17 0 7 4 15
9 17 5 2 59 64 121 138 176 212 194 233 213 252 9 10 17 23 17 28 0 6 4 10 8
10 4 0 24 21 44 48 21 26 47 58 60 72 13 14 41 47 63 74 21 27 48 60 60 72 11
12 34 39 50 60 59 73 148 179 154 184 3 3 18 21 33 40 15 19 38 49 53 65 14
17 40 47 58 69 18 21 37 43 42 50 6 6 75 90 155 186 80 96 149 180 155 186 25
26 101 119 115 138 8 12 19 26 25 31 7 6 29 32 51 60 21 27 46 57 55 65 9 8
31 35 50 60 19 24 41 52 49 61 8 8 24 26 35 40 11 13 46 56 78 94 33 39 75 90
95 114 21 25 44 52 52 61 8 8 31 36 50 60 19 25 49 61 67 80 17 19 42 49 54
65 13 17 46 57 75 90 28 33 60 71 70 84 10 13 48 58 84 101 36 42 81 96 100
120 19 23 40 48 45 54 6 6 55 65 110 131 54 66 107 128 118 139 10 10 16 20
14 23 -3 2 -447 4 -988 4 l-982 0 -21 -25 c-12 -13 -43 -53 -71 -88 -27 -34
-57 -71 -65 -82 -8 -10 -22 -26 -30 -35 -9 -9 -43 -50 -75 -91 -33 -41 -65
-80 -71 -86 -11 -12 -38 -46 -130 -159 -31 -38 -66 -81 -78 -95 -11 -14 -39
-47 -61 -75 -60 -74 -70 -86 -111 -135 -22 -25 -52 -63 -69 -84 -16 -21 -35
-44 -40 -50 -6 -6 -69 -83 -140 -171 -71 -87 -145 -178 -165 -201 -19 -23 -51
-61 -70 -85 -19 -24 -51 -62 -70 -84 -19 -23 -46 -56 -60 -75 -14 -18 -35 -44
-48 -56 -12 -13 -22 -27 -22 -33 0 -5 -4 -11 -9 -13 -4 -1 -71 -79 -147 -173
-76 -93 -142 -171 -146 -173 -4 -2 -8 -8 -8 -13 0 -5 -8 -17 -17 -27 -27 -28
-64 -72 -103 -122 -19 -25 -37 -47 -40 -50 -3 -3 -37 -43 -75 -90 -38 -47 -72
-87 -75 -90 -3 -3 -17 -21 -32 -40 -14 -19 -35 -45 -47 -57 -12 -12 -21 -25
-21 -28 0 -3 -10 -16 -22 -29 -13 -13 -30 -32 -38 -42 -123 -152 -237 -291
-245 -300 -5 -6 -23 -28 -40 -49 -16 -20 -34 -42 -40 -49 -15 -17 -98 -118
-115 -140 -8 -10 -28 -35 -45 -55 -16 -20 -34 -42 -40 -49 -5 -7 -17 -21 -25
-30 -9 -10 -42 -51 -75 -92 -33 -41 -62 -77 -65 -80 -3 -3 -25 -30 -50 -60
-25 -30 -47 -57 -50 -60 -3 -3 -21 -25 -40 -50 -19 -25 -37 -47 -40 -50 -3 -3
-50 -59 -104 -125 -88 -108 -132 -162 -176 -215 -8 -10 -28 -35 -45 -56 -16
-21 -38 -46 -47 -56 -10 -10 -18 -20 -18 -23 0 -3 -8 -13 -17 -24 -10 -10 -31
-35 -48 -55 -16 -21 -35 -43 -40 -49 -9 -10 -64 -77 -160 -196 -11 -13 -28
-33 -37 -43 -10 -10 -18 -20 -18 -23 0 -3 -8 -13 -17 -23 -19 -20 -36 -40 -98
-117 -21 -28 -42 -52 -45 -55 -3 -3 -36 -43 -73 -90 -37 -47 -76 -94 -86 -105
-9 -11 -71 -85 -136 -165 -65 -80 -124 -150 -130 -156 -8 -8 -11 697 -11 2642
l1 2654 -50 0 c-361 3 -1508 4 -1531 2z"/>
</g>
</svg>
