{
    "asset" : {
        "generator" : "Khronos glTF Blender I/O v1.8.19",
        "version" : "2.0"
    },
    "scene" : 0,
    "scenes" : [
        {
            "name" : "Scene",
            "nodes" : [
                0
            ]
        }
    ],
    "nodes" : [
        {
            "mesh" : 0,
            "name" : "Plane.002_Door_0",
            "rotation" : [
                -0.7071068286895752,
                0,
                0,
                0.7071068286895752
            ]
        }
    ],
    "meshes" : [
        {
            "name" : "Plane.002_Door_0",
            "primitives" : [
                {
                    "attributes" : {
                        "POSITION" : 0,
                        "NORMAL" : 1,
                        "TEXCOORD_0" : 2,
                        "TEXCOORD_1" : 3,
                        "TEXCOORD_2" : 4
                    },
                    "indices" : 5
                }
            ]
        }
    ],
    "accessors" : [
        {
            "bufferView" : 0,
            "componentType" : 5126,
            "count" : 5447,
            "max" : [
                0.4877620339393616,
                0.1390962451696396,
                0.9179584383964539
            ],
            "min" : [
                -0.4822380542755127,
                -0.12147652357816696,
                -1.1539252996444702
            ],
            "type" : "VEC3"
        },
        {
            "bufferView" : 1,
            "componentType" : 5126,
            "count" : 5447,
            "type" : "VEC3"
        },
        {
            "bufferView" : 2,
            "componentType" : 5126,
            "count" : 5447,
            "type" : "VEC2"
        },
        {
            "bufferView" : 3,
            "componentType" : 5126,
            "count" : 5447,
            "type" : "VEC2"
        },
        {
            "bufferView" : 4,
            "componentType" : 5126,
            "count" : 5447,
            "type" : "VEC2"
        },
        {
            "bufferView" : 5,
            "componentType" : 5123,
            "count" : 10926,
            "type" : "SCALAR"
        }
    ],
    "bufferViews" : [
        {
            "buffer" : 0,
            "byteLength" : 65364,
            "byteOffset" : 0
        },
        {
            "buffer" : 0,
            "byteLength" : 65364,
            "byteOffset" : 65364
        },
        {
            "buffer" : 0,
            "byteLength" : 43576,
            "byteOffset" : 130728
        },
        {
            "buffer" : 0,
            "byteLength" : 43576,
            "byteOffset" : 174304
        },
        {
            "buffer" : 0,
            "byteLength" : 43576,
            "byteOffset" : 217880
        },
        {
            "buffer" : 0,
            "byteLength" : 21852,
            "byteOffset" : 261456
        }
    ],
    "buffers" : [
        {
            "byteLength" : 283308,
            "uri" : "data:application/octet-stream;base64,"
        }
    ]
}
