{"asset":{"generator":"Khronos glTF Spline I/O v0.0.1","version":"2.0"},"scenes":[{"nodes":[0]}],"nodes":[{"name":"","children":[1,2,3]},{"name":"Door 2","matrix":[0.9961969233988567,0.005952594450843254,-0.08692673023849655,0,-0.052208468483931986,0.8395095518867768,-0.540830831322906,0,0.06975647374412529,0.5433123216991926,0.8366276085933443,0,-440,194,39,1],"children":[4,5,6,7,8,9,10,11,12,13,14,15,16,17]},{"name":"Directional Light","translation":[322.8737349820585,300,32.36609712706138],"rotation":[-0.6240170043487567,0.2719983089784558,-0.29270539372766313,0.6715230827597797],"extensions":{"KHR_lights_punctual":{"light":0}}},{"name":"Personal Camera","camera":0,"translation":[-480.1105482790881,1275.4183095488766,-285.20961304223914],"rotation":[0.05569178001128468,0.8674003407149811,0.48432079339079187,-0.09974188516377364]},{"name":"object_111","matrix":[1,0,0,0,0,1,0,0,0,0,1,0,0,0,0,1],"mesh":0},{"name":"RUCHKA_MSR014","matrix":[1,0,0,0,0,1,0,0,0,0,1,0,0,0,0,1],"mesh":1},{"name":"RUCHKA_MSR015","matrix":[1,0,0,0,0,1,0,0,0,0,1,0,0,0,0,1],"mesh":2},{"name":"object_108","matrix":[1,0,0,0,0,1,0,0,0,0,1,0,0,0,0,1],"mesh":3},{"name":"object_1","matrix":[1,0,0,0,0,1,0,0,0,0,1,0,0,0,0,1],"mesh":4},{"name":"object_114","matrix":[1,0,0,0,0,1,0,0,0,0,1,0,0,0,0,1],"mesh":5},{"name":"object_117","matrix":[1,0,0,0,0,1,0,0,0,0,1,0,0,0,0,1],"mesh":6},{"name":"object_118","matrix":[1,0,0,0,0,1,0,0,0,0,1,0,0,0,0,1],"mesh":7},{"name":"object_119","matrix":[1,0,0,0,0,1,0,0,0,0,1,0,0,0,0,1],"mesh":8},{"name":"object_120","matrix":[1,0,0,0,0,1,0,0,0,0,1,0,0,0,0,1],"mesh":9},{"name":"object_123","matrix":[1,0,0,0,0,1,0,0,0,0,1,0,0,0,0,1],"mesh":10},{"name":"object_124","matrix":[1,0,0,0,0,1,0,0,0,0,1,0,0,0,0,1],"mesh":11},{"name":"object_125","matrix":[1,0,0,0,0,1,0,0,0,0,1,0,0,0,0,1],"mesh":12},{"name":"object_124","matrix":[1,0,0,0,0,1,0,0,0,0,1,0,0,0,0,1],"mesh":13}],"cameras":[{"type":"orthographic","orthographic":{"xmag":2560,"ymag":1352,"zfar":100000,"znear":-100000}}],"meshes":[{"primitives":[{"attributes":{"POSITION":0,"NORMAL":1,"TEXCOORD_0":2}}]},{"primitives":[{"attributes":{"POSITION":3,"NORMAL":4,"TEXCOORD_0":5}}]},{"primitives":[{"attributes":{"POSITION":6,"NORMAL":7,"TEXCOORD_0":8}}]},{"primitives":[{"attributes":{"POSITION":9,"NORMAL":10,"TEXCOORD_0":11}}]},{"primitives":[{"attributes":{"POSITION":12,"NORMAL":13}}]},{"primitives":[{"attributes":{"POSITION":14,"NORMAL":15,"TEXCOORD_0":16}}]},{"primitives":[{"attributes":{"POSITION":17,"NORMAL":18,"TEXCOORD_0":19}}]},{"primitives":[{"attributes":{"POSITION":20,"NORMAL":21,"TEXCOORD_0":22}}]},{"primitives":[{"attributes":{"POSITION":23,"NORMAL":24,"TEXCOORD_0":25}}]},{"primitives":[{"attributes":{"POSITION":26,"NORMAL":27,"TEXCOORD_0":28}}]},{"primitives":[{"attributes":{"POSITION":29,"NORMAL":30,"TEXCOORD_0":31}}]},{"primitives":[{"attributes":{"POSITION":32,"NORMAL":33,"TEXCOORD_0":34}}]},{"primitives":[{"attributes":{"POSITION":35,"NORMAL":36}}]},{"primitives":[{"attributes":{"POSITION":37,"NORMAL":38,"TEXCOORD_0":39}}]}],"buffers":[{"uri":"data:application/octet-stream;base64,","byteLength":1152},{"uri":"data:application/octet-stream;base64,","byteLength":363264},{"uri":"data:application/octet-stream;base64,","byteLength":363264},{"uri":"data:application/octet-stream;base64,","byteLength":5760},{"uri":"data:application/octet-stream;base64,","byteLength":1086336},{"uri":"data:application/octet-stream;base64,","byteLength":1152},{"uri":"data:application/octet-stream;base64,","byteLength":1920},{"uri":"data:application/octet-stream;base64,","byteLength":1920},{"uri":"data:application/octet-stream;base64,","byteLength":1920},{"uri":"data:application/octet-stream;base64,","byteLength":1920},{"uri":"data:application/octet-stream;base64,","byteLength":87168},{"uri":"data:application/octet-stream;base64,","byteLength":5760},{"uri":"data:application/octet-stream;base64,","byteLength":1086336},{"uri":"data:application/octet-stream;base64,","byteLength":25536}],"bufferViews":[{"buffer":0,"byteOffset":0,"byteLength":432,"target":34962},{"buffer":0,"byteOffset":432,"byteLength":432,"target":34962},{"buffer":0,"byteOffset":864,"byteLength":288,"target":34962},{"buffer":1,"byteOffset":0,"byteLength":136224,"target":34962},{"buffer":1,"byteOffset":136224,"byteLength":136224,"target":34962},{"buffer":1,"byteOffset":272448,"byteLength":90816,"target":34962},{"buffer":2,"byteOffset":0,"byteLength":136224,"target":34962},{"buffer":2,"byteOffset":136224,"byteLength":136224,"target":34962},{"buffer":2,"byteOffset":272448,"byteLength":90816,"target":34962},{"buffer":3,"byteOffset":0,"byteLength":2160,"target":34962},{"buffer":3,"byteOffset":2160,"byteLength":2160,"target":34962},{"buffer":3,"byteOffset":4320,"byteLength":1440,"target":34962},{"buffer":4,"byteOffset":0,"byteLength":543168,"target":34962},{"buffer":4,"byteOffset":543168,"byteLength":543168,"target":34962},{"buffer":5,"byteOffset":0,"byteLength":432,"target":34962},{"buffer":5,"byteOffset":432,"byteLength":432,"target":34962},{"buffer":5,"byteOffset":864,"byteLength":288,"target":34962},{"buffer":6,"byteOffset":0,"byteLength":720,"target":34962},{"buffer":6,"byteOffset":720,"byteLength":720,"target":34962},{"buffer":6,"byteOffset":1440,"byteLength":480,"target":34962},{"buffer":7,"byteOffset":0,"byteLength":720,"target":34962},{"buffer":7,"byteOffset":720,"byteLength":720,"target":34962},{"buffer":7,"byteOffset":1440,"byteLength":480,"target":34962},{"buffer":8,"byteOffset":0,"byteLength":720,"target":34962},{"buffer":8,"byteOffset":720,"byteLength":720,"target":34962},{"buffer":8,"byteOffset":1440,"byteLength":480,"target":34962},{"buffer":9,"byteOffset":0,"byteLength":720,"target":34962},{"buffer":9,"byteOffset":720,"byteLength":720,"target":34962},{"buffer":9,"byteOffset":1440,"byteLength":480,"target":34962},{"buffer":10,"byteOffset":0,"byteLength":32688,"target":34962},{"buffer":10,"byteOffset":32688,"byteLength":32688,"target":34962},{"buffer":10,"byteOffset":65376,"byteLength":21792,"target":34962},{"buffer":11,"byteOffset":0,"byteLength":2160,"target":34962},{"buffer":11,"byteOffset":2160,"byteLength":2160,"target":34962},{"buffer":11,"byteOffset":4320,"byteLength":1440,"target":34962},{"buffer":12,"byteOffset":0,"byteLength":543168,"target":34962},{"buffer":12,"byteOffset":543168,"byteLength":543168,"target":34962},{"buffer":13,"byteOffset":0,"byteLength":9576,"target":34962},{"buffer":13,"byteOffset":9576,"byteLength":9576,"target":34962},{"buffer":13,"byteOffset":19152,"byteLength":6384,"target":34962}],"accessors":[{"bufferView":0,"byteOffset":0,"componentType":5126,"count":36,"type":"VEC3","min":[-77.58414459228516,-24.30027961730957,56.30913543701172],"max":[78.854248046875,-14.456738471984863,775.2227172851562]},{"bufferView":1,"byteOffset":0,"componentType":5126,"count":36,"type":"VEC3","min":[-1,-1,-1],"max":[1,1,1]},{"bufferView":2,"byteOffset":0,"componentType":5126,"count":36,"type":"VEC2","min":[0,0],"max":[0,0]},{"bufferView":3,"byteOffset":0,"componentType":5126,"count":11352,"type":"VEC3","min":[-157.42259216308594,-50.0000114440918,339.6688232421875],"max":[-108.03359985351562,-26.281890869140625,357.9492492675781]},{"bufferView":4,"byteOffset":0,"componentType":5126,"count":11352,"type":"VEC3","min":[-0.9999993443489075,-1,-0.9999993443489075],"max":[0.9999993443489075,1,0.9999993443489075]},{"bufferView":5,"byteOffset":0,"componentType":5126,"count":11352,"type":"VEC2","min":[-65.60700225830078,-34.76340103149414],"max":[62.07849884033203,29.645299911499023]},{"bufferView":6,"byteOffset":0,"componentType":5126,"count":11352,"type":"VEC3","min":[-157.42259216308594,-12.375574111938477,339.66876220703125],"max":[-108.03359985351562,11.342549324035645,357.9491882324219]},{"bufferView":7,"byteOffset":0,"componentType":5126,"count":11352,"type":"VEC3","min":[-0.9999993443489075,-1,-0.9999993443489075],"max":[0.9999993443489075,1,0.9999993443489075]},{"bufferView":8,"byteOffset":0,"componentType":5126,"count":11352,"type":"VEC2","min":[-65.60700225830078,-34.76340103149414],"max":[62.07849884033203,29.645299911499023]},{"bufferView":9,"byteOffset":0,"componentType":5126,"count":180,"type":"VEC3","min":[-198.1647491455078,-33.08897018432617,0.06162266805768013],"max":[148.46054077148438,-22.89385414123535,844.8289794921875]},{"bufferView":10,"byteOffset":0,"componentType":5126,"count":180,"type":"VEC3","min":[-1,-1,-1],"max":[1,1,1]},{"bufferView":11,"byteOffset":0,"componentType":5126,"count":180,"type":"VEC2","min":[0,0],"max":[0,0]},{"bufferView":12,"byteOffset":0,"componentType":5126,"count":45264,"type":"VEC3","min":[-132.08102416992188,-26.417842864990234,3.4715614318847656],"max":[-93.14016723632812,-22.523759841918945,812.0708618164062]},{"bufferView":13,"byteOffset":0,"componentType":5126,"count":45264,"type":"VEC3","min":[-1,-1,-0.5847256779670715],"max":[1,1,1]},{"bufferView":14,"byteOffset":0,"componentType":5126,"count":36,"type":"VEC3","min":[-77.58414459228516,-24.30017852783203,3.5771589279174805],"max":[78.854248046875,-14.456846237182617,56.3092041015625]},{"bufferView":15,"byteOffset":0,"componentType":5126,"count":36,"type":"VEC3","min":[-1,-1,-1],"max":[1,1,1]},{"bufferView":16,"byteOffset":0,"componentType":5126,"count":36,"type":"VEC2","min":[0,0],"max":[0,0]},{"bufferView":17,"byteOffset":0,"componentType":5126,"count":60,"type":"VEC3","min":[-95.51296997070312,-16.56660270690918,3.577092170715332],"max":[-92.70059204101562,-11.99623966217041,812.1351318359375]},{"bufferView":18,"byteOffset":0,"componentType":5126,"count":60,"type":"VEC3","min":[-1,-1,-1],"max":[1,1,1]},{"bufferView":19,"byteOffset":0,"componentType":5126,"count":60,"type":"VEC2","min":[0,0],"max":[0,0]},{"bufferView":20,"byteOffset":0,"componentType":5126,"count":60,"type":"VEC3","min":[-132.77691650390625,-16.56660270690918,3.577092170715332],"max":[-129.96453857421875,-11.99623966217041,812.1351318359375]},{"bufferView":21,"byteOffset":0,"componentType":5126,"count":60,"type":"VEC3","min":[-1,-1,-1],"max":[1,1,1]},{"bufferView":22,"byteOffset":0,"componentType":5126,"count":60,"type":"VEC2","min":[0,0],"max":[0,0]},{"bufferView":23,"byteOffset":0,"componentType":5126,"count":60,"type":"VEC3","min":[-132.72950744628906,-26.761465072631836,3.577092170715332],"max":[-129.91712951660156,-22.19110107421875,812.1351318359375]},{"bufferView":24,"byteOffset":0,"componentType":5126,"count":60,"type":"VEC3","min":[-1,-1,-1],"max":[1,1,1]},{"bufferView":25,"byteOffset":0,"componentType":5126,"count":60,"type":"VEC2","min":[0,0],"max":[0,0]},{"bufferView":26,"byteOffset":0,"componentType":5126,"count":60,"type":"VEC3","min":[-94.92817687988281,-26.761465072631836,3.577092170715332],"max":[-92.11579895019531,-22.19110107421875,812.1351318359375]},{"bufferView":27,"byteOffset":0,"componentType":5126,"count":60,"type":"VEC3","min":[-1,-1,-1],"max":[1,1,1]},{"bufferView":28,"byteOffset":0,"componentType":5126,"count":60,"type":"VEC2","min":[0,0],"max":[0,0]},{"bufferView":29,"byteOffset":0,"componentType":5126,"count":2724,"type":"VEC3","min":[-165.47088623046875,-26.40991973876953,3.577092170715332],"max":[115.76667785644531,-12.347447395324707,812.1351318359375]},{"bufferView":30,"byteOffset":0,"componentType":5126,"count":2724,"type":"VEC3","min":[-1,-1,-1],"max":[1,1,1]},{"bufferView":31,"byteOffset":0,"componentType":5126,"count":2724,"type":"VEC2","min":[0,0],"max":[0,0]},{"bufferView":32,"byteOffset":0,"componentType":5126,"count":180,"type":"VEC3","min":[-198.18603515625,39.804813385009766,0.06162266805768013],"max":[148.4392547607422,49.9999885559082,844.8289794921875]},{"bufferView":33,"byteOffset":0,"componentType":5126,"count":180,"type":"VEC3","min":[-1,-1,-1],"max":[1,1,1]},{"bufferView":34,"byteOffset":0,"componentType":5126,"count":180,"type":"VEC2","min":[0,0],"max":[0,0]},{"bufferView":35,"byteOffset":0,"componentType":5126,"count":45264,"type":"VEC3","min":[-132.08102416992188,-16.226470947265625,3.4715614318847656],"max":[-93.14016723632812,-12.332255363464355,812.0708618164062]},{"bufferView":36,"byteOffset":0,"componentType":5126,"count":45264,"type":"VEC3","min":[-1,-1,-0.5847256779670715],"max":[1,1,1]},{"bufferView":37,"byteOffset":0,"componentType":5126,"count":798,"type":"VEC3","min":[-180.58738708496094,-26.409582138061523,0.000035154698707628995],"max":[130.88320922851562,43.3232536315918,827.2516479492188]},{"bufferView":38,"byteOffset":0,"componentType":5126,"count":798,"type":"VEC3","min":[-1,-1,-1],"max":[1,1,1]},{"bufferView":39,"byteOffset":0,"componentType":5126,"count":798,"type":"VEC2","min":[0,0],"max":[0,0]}],"extensions":{"KHR_lights_punctual":{"lights":[{"type":"directional","name":"Directional Light","color":[1,1,1],"intensity":0.3}]}},"extensionsUsed":["KHR_lights_punctual"]}