{
    "asset" : {
        "generator" : "Khronos glTF Blender I/O v1.8.19",
        "version" : "2.0"
    },
    "scene" : 0,
    "scenes" : [
        {
            "name" : "Scene",
            "nodes" : [
                0
            ]
        }
    ],
    "nodes" : [
        {
            "mesh" : 0,
            "name" : "Plane.002_Door_0",
            "rotation" : [
                -0.7071067690849304,
                0,
                0,
                0.7071069478988647
            ]
        }
    ],
    "meshes" : [
        {
            "name" : "Plane.002_Door_0.001",
            "primitives" : [
                {
                    "attributes" : {
                        "POSITION" : 0,
                        "NORMAL" : 1,
                        "TEXCOORD_0" : 2,
                        "TEXCOORD_1" : 3,
                        "TEXCOORD_2" : 4
                    },
                    "indices" : 5
                }
            ]
        }
    ],
    "accessors" : [
        {
            "bufferView" : 0,
            "componentType" : 5126,
            "count" : 5937,
            "max" : [
                0.4832605719566345,
                0.13991610705852509,
                0.9767134189605713
            ],
            "min" : [
                -0.48673951625823975,
                -0.12065666913986206,
                -1.095170259475708
            ],
            "type" : "VEC3"
        },
        {
            "bufferView" : 1,
            "componentType" : 5126,
            "count" : 5937,
            "type" : "VEC3"
        },
        {
            "bufferView" : 2,
            "componentType" : 5126,
            "count" : 5937,
            "type" : "VEC2"
        },
        {
            "bufferView" : 3,
            "componentType" : 5126,
            "count" : 5937,
            "type" : "VEC2"
        },
        {
            "bufferView" : 4,
            "componentType" : 5126,
            "count" : 5937,
            "type" : "VEC2"
        },
        {
            "bufferView" : 5,
            "componentType" : 5123,
            "count" : 10926,
            "type" : "SCALAR"
        }
    ],
    "bufferViews" : [
        {
            "buffer" : 0,
            "byteLength" : 71244,
            "byteOffset" : 0
        },
        {
            "buffer" : 0,
            "byteLength" : 71244,
            "byteOffset" : 71244
        },
        {
            "buffer" : 0,
            "byteLength" : 47496,
            "byteOffset" : 142488
        },
        {
            "buffer" : 0,
            "byteLength" : 47496,
            "byteOffset" : 189984
        },
        {
            "buffer" : 0,
            "byteLength" : 47496,
            "byteOffset" : 237480
        },
        {
            "buffer" : 0,
            "byteLength" : 21852,
            "byteOffset" : 284976
        }
    ],
    "buffers" : [
        {
            "byteLength" : 306828,
            "uri" : "data:application/octet-stream;base64,"
        }
    ]
}
