{
    "asset" : {
        "generator" : "Khronos glTF Blender I/O v1.8.19",
        "version" : "2.0"
    },
    "scene" : 0,
    "scenes" : [
        {
            "name" : "Scene",
            "nodes" : [
                0,
                1,
                2,
                3,
                4,
                5,
                6,
                7,
                8,
                9,
                10
            ]
        }
    ],
    "nodes" : [
        {
            "mesh" : 0,
            "name" : "object_1.003",
            "rotation" : [
                0.7071068286895752,
                0,
                0,
                0.7071067094802856
            ]
        },
        {
            "mesh" : 1,
            "name" : "object_2.003",
            "rotation" : [
                0.7071068286895752,
                0,
                0,
                0.7071067094802856
            ]
        },
        {
            "mesh" : 2,
            "name" : "object_3.003",
            "rotation" : [
                0.7071068286895752,
                0,
                0,
                0.7071067094802856
            ]
        },
        {
            "mesh" : 3,
            "name" : "object_4.003",
            "rotation" : [
                0.7071068286895752,
                0,
                0,
                0.7071067094802856
            ]
        },
        {
            "mesh" : 4,
            "name" : "object_5.003",
            "rotation" : [
                0.7071068286895752,
                0,
                0,
                0.7071067094802856
            ]
        },
        {
            "mesh" : 5,
            "name" : "object_6",
            "rotation" : [
                0.7071068286895752,
                0,
                0,
                0.7071067094802856
            ]
        },
        {
            "mesh" : 6,
            "name" : "object_7",
            "rotation" : [
                0.7071068286895752,
                0,
                0,
                0.7071067094802856
            ]
        },
        {
            "mesh" : 7,
            "name" : "object_8",
            "rotation" : [
                0.7071068286895752,
                0,
                0,
                0.7071067094802856
            ]
        },
        {
            "mesh" : 8,
            "name" : "object_9",
            "rotation" : [
                0.7071068286895752,
                0,
                0,
                0.7071067094802856
            ]
        },
        {
            "mesh" : 9,
            "name" : "object_10",
            "rotation" : [
                0.7071068286895752,
                0,
                0,
                0.7071067094802856
            ]
        },
        {
            "mesh" : 10,
            "name" : "object_11",
            "rotation" : [
                0.7071068286895752,
                0,
                0,
                0.7071067094802856
            ]
        }
    ],
    "materials" : [
        {
            "doubleSided" : true,
            "name" : "metallo.001",
            "pbrMetallicRoughness" : {
                "metallicFactor" : 0
            }
        },
        {
            "doubleSided" : true,
            "name" : "metallo.003",
            "pbrMetallicRoughness" : {
                "metallicFactor" : 0
            }
        }
    ],
    "meshes" : [
        {
            "name" : "object_1.003",
            "primitives" : [
                {
                    "attributes" : {
                        "POSITION" : 0,
                        "NORMAL" : 1,
                        "TEXCOORD_0" : 2
                    },
                    "indices" : 3,
                    "material" : 0
                }
            ]
        },
        {
            "name" : "object_2.003",
            "primitives" : [
                {
                    "attributes" : {
                        "POSITION" : 4,
                        "NORMAL" : 5,
                        "TEXCOORD_0" : 6
                    },
                    "indices" : 3,
                    "material" : 0
                }
            ]
        },
        {
            "name" : "object_3.003",
            "primitives" : [
                {
                    "attributes" : {
                        "POSITION" : 7,
                        "NORMAL" : 8,
                        "TEXCOORD_0" : 9
                    },
                    "indices" : 10,
                    "material" : 0
                }
            ]
        },
        {
            "name" : "object_4.003",
            "primitives" : [
                {
                    "attributes" : {
                        "POSITION" : 11,
                        "NORMAL" : 12,
                        "TEXCOORD_0" : 13
                    },
                    "indices" : 14,
                    "material" : 0
                }
            ]
        },
        {
            "name" : "object_5.003",
            "primitives" : [
                {
                    "attributes" : {
                        "POSITION" : 15,
                        "NORMAL" : 16,
                        "TEXCOORD_0" : 17
                    },
                    "indices" : 18,
                    "material" : 0
                }
            ]
        },
        {
            "name" : "object_6",
            "primitives" : [
                {
                    "attributes" : {
                        "POSITION" : 19,
                        "NORMAL" : 20,
                        "TEXCOORD_0" : 21
                    },
                    "indices" : 22,
                    "material" : 0
                }
            ]
        },
        {
            "name" : "object_7",
            "primitives" : [
                {
                    "attributes" : {
                        "POSITION" : 23,
                        "NORMAL" : 24,
                        "TEXCOORD_0" : 25
                    },
                    "indices" : 26,
                    "material" : 0
                }
            ]
        },
        {
            "name" : "object_8",
            "primitives" : [
                {
                    "attributes" : {
                        "POSITION" : 27,
                        "NORMAL" : 28,
                        "TEXCOORD_0" : 29
                    },
                    "indices" : 30,
                    "material" : 0
                }
            ]
        },
        {
            "name" : "object_9",
            "primitives" : [
                {
                    "attributes" : {
                        "POSITION" : 31,
                        "NORMAL" : 32,
                        "TEXCOORD_0" : 33
                    },
                    "indices" : 34,
                    "material" : 0
                }
            ]
        },
        {
            "name" : "object_10",
            "primitives" : [
                {
                    "attributes" : {
                        "POSITION" : 35,
                        "NORMAL" : 36,
                        "TEXCOORD_0" : 37
                    },
                    "indices" : 34,
                    "material" : 0
                }
            ]
        },
        {
            "name" : "object_11",
            "primitives" : [
                {
                    "attributes" : {
                        "POSITION" : 38,
                        "NORMAL" : 39,
                        "TEXCOORD_0" : 40
                    },
                    "indices" : 41,
                    "material" : 1
                }
            ]
        }
    ],
    "accessors" : [
        {
            "bufferView" : 0,
            "componentType" : 5126,
            "count" : 24,
            "max" : [
                1.5,
                -2.9593963623046875,
                146.0027618408203
            ],
            "min" : [
                -1.5,
                -4.9593963623046875,
                -145.9996337890625
            ],
            "type" : "VEC3"
        },
        {
            "bufferView" : 1,
            "componentType" : 5126,
            "count" : 24,
            "type" : "VEC3"
        },
        {
            "bufferView" : 2,
            "componentType" : 5126,
            "count" : 24,
            "type" : "VEC2"
        },
        {
            "bufferView" : 3,
            "componentType" : 5123,
            "count" : 36,
            "type" : "SCALAR"
        },
        {
            "bufferView" : 4,
            "componentType" : 5126,
            "count" : 24,
            "max" : [
                1.5,
                4.980430603027344,
                146.0027618408203
            ],
            "min" : [
                -1.5,
                2.980438232421875,
                -145.9996337890625
            ],
            "type" : "VEC3"
        },
        {
            "bufferView" : 5,
            "componentType" : 5126,
            "count" : 24,
            "type" : "VEC3"
        },
        {
            "bufferView" : 6,
            "componentType" : 5126,
            "count" : 24,
            "type" : "VEC2"
        },
        {
            "bufferView" : 7,
            "componentType" : 5126,
            "count" : 48,
            "max" : [
                0.75,
                3.0014724731445312,
                146.0027618408203
            ],
            "min" : [
                -0.75,
                -2.9804306030273438,
                144.5027618408203
            ],
            "type" : "VEC3"
        },
        {
            "bufferView" : 8,
            "componentType" : 5126,
            "count" : 48,
            "type" : "VEC3"
        },
        {
            "bufferView" : 9,
            "componentType" : 5126,
            "count" : 48,
            "type" : "VEC2"
        },
        {
            "bufferView" : 10,
            "componentType" : 5123,
            "count" : 108,
            "type" : "SCALAR"
        },
        {
            "bufferView" : 11,
            "componentType" : 5126,
            "count" : 202,
            "max" : [
                3.98992919921875,
                3.9899368286132812,
                150.0003662109375
            ],
            "min" : [
                -3.98992919921875,
                -3.98992919921875,
                149.0027313232422
            ],
            "type" : "VEC3"
        },
        {
            "bufferView" : 12,
            "componentType" : 5126,
            "count" : 202,
            "type" : "VEC3"
        },
        {
            "bufferView" : 13,
            "componentType" : 5126,
            "count" : 202,
            "type" : "VEC2"
        },
        {
            "bufferView" : 14,
            "componentType" : 5123,
            "count" : 960,
            "type" : "SCALAR"
        },
        {
            "bufferView" : 15,
            "componentType" : 5126,
            "count" : 202,
            "max" : [
                3.98992919921875,
                3.9899368286132812,
                -149.00274658203125
            ],
            "min" : [
                -3.98992919921875,
                -3.98992919921875,
                -150.0003662109375
            ],
            "type" : "VEC3"
        },
        {
            "bufferView" : 16,
            "componentType" : 5126,
            "count" : 202,
            "type" : "VEC3"
        },
        {
            "bufferView" : 17,
            "componentType" : 5126,
            "count" : 202,
            "type" : "VEC2"
        },
        {
            "bufferView" : 18,
            "componentType" : 5123,
            "count" : 960,
            "type" : "SCALAR"
        },
        {
            "bufferView" : 19,
            "componentType" : 5126,
            "count" : 48,
            "max" : [
                0.75,
                3.0014724731445312,
                -144.5003662109375
            ],
            "min" : [
                -0.75,
                -2.9804306030273438,
                -146.0003662109375
            ],
            "type" : "VEC3"
        },
        {
            "bufferView" : 20,
            "componentType" : 5126,
            "count" : 48,
            "type" : "VEC3"
        },
        {
            "bufferView" : 21,
            "componentType" : 5126,
            "count" : 48,
            "type" : "VEC2"
        },
        {
            "bufferView" : 22,
            "componentType" : 5123,
            "count" : 108,
            "type" : "SCALAR"
        },
        {
            "bufferView" : 23,
            "componentType" : 5126,
            "count" : 4,
            "max" : [
                1.5,
                -2.9804306030273438,
                -124.95037841796875
            ],
            "min" : [
                -1.5,
                -4.980430603027344,
                -124.95037841796875
            ],
            "type" : "VEC3"
        },
        {
            "bufferView" : 24,
            "componentType" : 5126,
            "count" : 4,
            "type" : "VEC3"
        },
        {
            "bufferView" : 25,
            "componentType" : 5126,
            "count" : 4,
            "type" : "VEC2"
        },
        {
            "bufferView" : 26,
            "componentType" : 5123,
            "count" : 6,
            "type" : "SCALAR"
        },
        {
            "bufferView" : 27,
            "componentType" : 5126,
            "count" : 14539,
            "max" : [
                0.5633544921875,
                0.5931015014648438,
                149.0228271484375
            ],
            "min" : [
                -0.58447265625,
                -0.5547561645507812,
                139.50526428222656
            ],
            "type" : "VEC3"
        },
        {
            "bufferView" : 28,
            "componentType" : 5126,
            "count" : 14539,
            "type" : "VEC3"
        },
        {
            "bufferView" : 29,
            "componentType" : 5126,
            "count" : 14539,
            "type" : "VEC2"
        },
        {
            "bufferView" : 30,
            "componentType" : 5123,
            "count" : 49608,
            "type" : "SCALAR"
        },
        {
            "bufferView" : 31,
            "componentType" : 5126,
            "count" : 48,
            "max" : [
                0.75,
                3.0014724731445312,
                -39.984710693359375
            ],
            "min" : [
                -0.75,
                -2.9804306030273438,
                -41.484710693359375
            ],
            "type" : "VEC3"
        },
        {
            "bufferView" : 32,
            "componentType" : 5126,
            "count" : 48,
            "type" : "VEC3"
        },
        {
            "bufferView" : 33,
            "componentType" : 5126,
            "count" : 48,
            "type" : "VEC2"
        },
        {
            "bufferView" : 34,
            "componentType" : 5123,
            "count" : 108,
            "type" : "SCALAR"
        },
        {
            "bufferView" : 35,
            "componentType" : 5126,
            "count" : 48,
            "max" : [
                0.75,
                3.0014724731445312,
                60.015281677246094
            ],
            "min" : [
                -0.75,
                -2.9804306030273438,
                58.515281677246094
            ],
            "type" : "VEC3"
        },
        {
            "bufferView" : 36,
            "componentType" : 5126,
            "count" : 48,
            "type" : "VEC3"
        },
        {
            "bufferView" : 37,
            "componentType" : 5126,
            "count" : 48,
            "type" : "VEC2"
        },
        {
            "bufferView" : 38,
            "componentType" : 5126,
            "count" : 14763,
            "max" : [
                0.5633544921875,
                0.5931015014648438,
                -139.50527954101562
            ],
            "min" : [
                -0.58447265625,
                -0.5547561645507812,
                -149.0228271484375
            ],
            "type" : "VEC3"
        },
        {
            "bufferView" : 39,
            "componentType" : 5126,
            "count" : 14763,
            "type" : "VEC3"
        },
        {
            "bufferView" : 40,
            "componentType" : 5126,
            "count" : 14763,
            "type" : "VEC2"
        },
        {
            "bufferView" : 41,
            "componentType" : 5123,
            "count" : 50952,
            "type" : "SCALAR"
        }
    ],
    "bufferViews" : [
        {
            "buffer" : 0,
            "byteLength" : 288,
            "byteOffset" : 0
        },
        {
            "buffer" : 0,
            "byteLength" : 288,
            "byteOffset" : 288
        },
        {
            "buffer" : 0,
            "byteLength" : 192,
            "byteOffset" : 576
        },
        {
            "buffer" : 0,
            "byteLength" : 72,
            "byteOffset" : 768
        },
        {
            "buffer" : 0,
            "byteLength" : 288,
            "byteOffset" : 840
        },
        {
            "buffer" : 0,
            "byteLength" : 288,
            "byteOffset" : 1128
        },
        {
            "buffer" : 0,
            "byteLength" : 192,
            "byteOffset" : 1416
        },
        {
            "buffer" : 0,
            "byteLength" : 576,
            "byteOffset" : 1608
        },
        {
            "buffer" : 0,
            "byteLength" : 576,
            "byteOffset" : 2184
        },
        {
            "buffer" : 0,
            "byteLength" : 384,
            "byteOffset" : 2760
        },
        {
            "buffer" : 0,
            "byteLength" : 216,
            "byteOffset" : 3144
        },
        {
            "buffer" : 0,
            "byteLength" : 2424,
            "byteOffset" : 3360
        },
        {
            "buffer" : 0,
            "byteLength" : 2424,
            "byteOffset" : 5784
        },
        {
            "buffer" : 0,
            "byteLength" : 1616,
            "byteOffset" : 8208
        },
        {
            "buffer" : 0,
            "byteLength" : 1920,
            "byteOffset" : 9824
        },
        {
            "buffer" : 0,
            "byteLength" : 2424,
            "byteOffset" : 11744
        },
        {
            "buffer" : 0,
            "byteLength" : 2424,
            "byteOffset" : 14168
        },
        {
            "buffer" : 0,
            "byteLength" : 1616,
            "byteOffset" : 16592
        },
        {
            "buffer" : 0,
            "byteLength" : 1920,
            "byteOffset" : 18208
        },
        {
            "buffer" : 0,
            "byteLength" : 576,
            "byteOffset" : 20128
        },
        {
            "buffer" : 0,
            "byteLength" : 576,
            "byteOffset" : 20704
        },
        {
            "buffer" : 0,
            "byteLength" : 384,
            "byteOffset" : 21280
        },
        {
            "buffer" : 0,
            "byteLength" : 216,
            "byteOffset" : 21664
        },
        {
            "buffer" : 0,
            "byteLength" : 48,
            "byteOffset" : 21880
        },
        {
            "buffer" : 0,
            "byteLength" : 48,
            "byteOffset" : 21928
        },
        {
            "buffer" : 0,
            "byteLength" : 32,
            "byteOffset" : 21976
        },
        {
            "buffer" : 0,
            "byteLength" : 12,
            "byteOffset" : 22008
        },
        {
            "buffer" : 0,
            "byteLength" : 174468,
            "byteOffset" : 22020
        },
        {
            "buffer" : 0,
            "byteLength" : 174468,
            "byteOffset" : 196488
        },
        {
            "buffer" : 0,
            "byteLength" : 116312,
            "byteOffset" : 370956
        },
        {
            "buffer" : 0,
            "byteLength" : 99216,
            "byteOffset" : 487268
        },
        {
            "buffer" : 0,
            "byteLength" : 576,
            "byteOffset" : 586484
        },
        {
            "buffer" : 0,
            "byteLength" : 576,
            "byteOffset" : 587060
        },
        {
            "buffer" : 0,
            "byteLength" : 384,
            "byteOffset" : 587636
        },
        {
            "buffer" : 0,
            "byteLength" : 216,
            "byteOffset" : 588020
        },
        {
            "buffer" : 0,
            "byteLength" : 576,
            "byteOffset" : 588236
        },
        {
            "buffer" : 0,
            "byteLength" : 576,
            "byteOffset" : 588812
        },
        {
            "buffer" : 0,
            "byteLength" : 384,
            "byteOffset" : 589388
        },
        {
            "buffer" : 0,
            "byteLength" : 177156,
            "byteOffset" : 589772
        },
        {
            "buffer" : 0,
            "byteLength" : 177156,
            "byteOffset" : 766928
        },
        {
            "buffer" : 0,
            "byteLength" : 118104,
            "byteOffset" : 944084
        },
        {
            "buffer" : 0,
            "byteLength" : 101904,
            "byteOffset" : 1062188
        }
    ],
    "buffers" : [
        {
            "byteLength" : 1164092,
            "uri" : "data:application/octet-stream;base64,"
        }
    ]
}
