{
    "asset" : {
        "generator" : "Khronos glTF Blender I/O v1.8.19",
        "version" : "2.0"
    },
    "scene" : 0,
    "scenes" : [
        {
            "name" : "Scene",
            "nodes" : [
                0
            ]
        }
    ],
    "nodes" : [
        {
            "mesh" : 0,
            "name" : "upright_03",
            "rotation" : [
                0.7071068286895752,
                0,
                0,
                0.7071067094802856
            ],
            "translation" : [
                -1,
                -73,
                -1.7000000476837158
            ]
        }
    ],
    "materials" : [
        {
            "doubleSided" : true,
            "name" : "M_01M14",
            "pbrMetallicRoughness" : {
                "baseColorFactor" : [
                    0.800000011920929,
                    0.800000011920929,
                    0.800000011920929,
                    1
                ],
                "metallicFactor" : 0,
                "roughnessFactor" : 0.5
            }
        }
    ],
    "meshes" : [
        {
            "name" : "upright_03",
            "primitives" : [
                {
                    "attributes" : {
                        "POSITION" : 0,
                        "NORMAL" : 1,
                        "TEXCOORD_0" : 2
                    },
                    "indices" : 3,
                    "material" : 0
                }
            ]
        }
    ],
    "accessors" : [
        {
            "bufferView" : 0,
            "componentType" : 5126,
            "count" : 8625,
            "max" : [
                2,
                3.4000000953674316,
                -9.023890067529159e-15
            ],
            "min" : [
                1.4438199984548317e-12,
                -4.511950115962263e-15,
                -146
            ],
            "type" : "VEC3"
        },
        {
            "bufferView" : 1,
            "componentType" : 5126,
            "count" : 8625,
            "type" : "VEC3"
        },
        {
            "bufferView" : 2,
            "componentType" : 5126,
            "count" : 8625,
            "type" : "VEC2"
        },
        {
            "bufferView" : 3,
            "componentType" : 5123,
            "count" : 16848,
            "type" : "SCALAR"
        }
    ],
    "bufferViews" : [
        {
            "buffer" : 0,
            "byteLength" : 103500,
            "byteOffset" : 0
        },
        {
            "buffer" : 0,
            "byteLength" : 103500,
            "byteOffset" : 103500
        },
        {
            "buffer" : 0,
            "byteLength" : 69000,
            "byteOffset" : 207000
        },
        {
            "buffer" : 0,
            "byteLength" : 33696,
            "byteOffset" : 276000
        }
    ],
    "buffers" : [
        {
            "byteLength" : 309696,
            "uri" : "data:application/octet-stream;base64,"
        }
    ]
}
