{
    "asset" : {
        "generator" : "Khronos glTF Blender I/O v1.8.19",
        "version" : "2.0"
    },
    "scene" : 0,
    "scenes" : [
        {
            "name" : "Scene",
            "nodes" : [
                0
            ]
        }
    ],
    "nodes" : [
        {
            "mesh" : 0,
            "name" : "upright_04",
            "rotation" : [
                0.7071068286895752,
                0,
                0,
                0.7071068286895752
            ],
            "translation" : [
                -1,
                -99,
                -1.7000000476837158
            ]
        }
    ],
    "materials" : [
        {
            "doubleSided" : true,
            "name" : "M_01M19",
            "pbrMetallicRoughness" : {
                "baseColorFactor" : [
                    0.800000011920929,
                    0.800000011920929,
                    0.800000011920929,
                    1
                ],
                "metallicFactor" : 0,
                "roughnessFactor" : 0.5
            }
        }
    ],
    "meshes" : [
        {
            "name" : "upright_04",
            "primitives" : [
                {
                    "attributes" : {
                        "POSITION" : 0,
                        "NORMAL" : 1,
                        "TEXCOORD_0" : 2
                    },
                    "indices" : 3,
                    "material" : 0
                }
            ]
        }
    ],
    "accessors" : [
        {
            "bufferView" : 0,
            "componentType" : 5126,
            "count" : 11186,
            "max" : [
                2,
                3.4000000953674316,
                -9.023890067529159e-15
            ],
            "min" : [
                1.4438199984548317e-12,
                -3.1583598719209585e-14,
                -198
            ],
            "type" : "VEC3"
        },
        {
            "bufferView" : 1,
            "componentType" : 5126,
            "count" : 11186,
            "type" : "VEC3"
        },
        {
            "bufferView" : 2,
            "componentType" : 5126,
            "count" : 11186,
            "type" : "VEC2"
        },
        {
            "bufferView" : 3,
            "componentType" : 5123,
            "count" : 21840,
            "type" : "SCALAR"
        }
    ],
    "bufferViews" : [
        {
            "buffer" : 0,
            "byteLength" : 134232,
            "byteOffset" : 0
        },
        {
            "buffer" : 0,
            "byteLength" : 134232,
            "byteOffset" : 134232
        },
        {
            "buffer" : 0,
            "byteLength" : 89488,
            "byteOffset" : 268464
        },
        {
            "buffer" : 0,
            "byteLength" : 43680,
            "byteOffset" : 357952
        }
    ],
    "buffers" : [
        {
            "byteLength" : 401632,
            "uri" : "data:application/octet-stream;base64,"
        }
    ]
}
