{
    "asset" : {
        "generator" : "Khronos glTF Blender I/O v1.8.19",
        "version" : "2.0"
    },
    "scene" : 0,
    "scenes" : [
        {
            "name" : "Scene",
            "nodes" : [
                0
            ]
        }
    ],
    "nodes" : [
        {
            "mesh" : 0,
            "name" : "upright_01",
            "rotation" : [
                0.7071068286895752,
                0,
                0,
                0.7071067094802856
            ],
            "translation" : [
                -1,
                -28.5,
                -1.7000000476837158
            ]
        }
    ],
    "materials" : [
        {
            "doubleSided" : true,
            "name" : "M_01M05",
            "pbrMetallicRoughness" : {
                "baseColorFactor" : [
                    0.800000011920929,
                    0.800000011920929,
                    0.800000011920929,
                    1
                ],
                "metallicFactor" : 0,
                "roughnessFactor" : 0.5
            }
        }
    ],
    "meshes" : [
        {
            "name" : "upright_01",
            "primitives" : [
                {
                    "attributes" : {
                        "POSITION" : 0,
                        "NORMAL" : 1,
                        "TEXCOORD_0" : 2
                    },
                    "indices" : 3,
                    "material" : 0
                }
            ]
        }
    ],
    "accessors" : [
        {
            "bufferView" : 0,
            "componentType" : 5126,
            "count" : 3758,
            "max" : [
                2,
                3.4000000953674316,
                -9.023890067529159e-15
            ],
            "min" : [
                2.021350101188979e-12,
                0,
                -57
            ],
            "type" : "VEC3"
        },
        {
            "bufferView" : 1,
            "componentType" : 5126,
            "count" : 3758,
            "type" : "VEC3"
        },
        {
            "bufferView" : 2,
            "componentType" : 5126,
            "count" : 3758,
            "type" : "VEC2"
        },
        {
            "bufferView" : 3,
            "componentType" : 5123,
            "count" : 7650,
            "type" : "SCALAR"
        }
    ],
    "bufferViews" : [
        {
            "buffer" : 0,
            "byteLength" : 45096,
            "byteOffset" : 0
        },
        {
            "buffer" : 0,
            "byteLength" : 45096,
            "byteOffset" : 45096
        },
        {
            "buffer" : 0,
            "byteLength" : 30064,
            "byteOffset" : 90192
        },
        {
            "buffer" : 0,
            "byteLength" : 15300,
            "byteOffset" : 120256
        }
    ],
    "buffers" : [
        {
            "byteLength" : 135556,
            "uri" : "data:application/octet-stream;base64,"
        }
    ]
}
