{
    "asset" : {
        "generator" : "Khronos glTF Blender I/O v1.8.19",
        "version" : "2.0"
    },
    "scene" : 0,
    "scenes" : [
        {
            "name" : "Scene",
            "nodes" : [
                0
            ]
        }
    ],
    "nodes" : [
        {
            "mesh" : 0,
            "name" : "Cube.011_Cube.018",
            "rotation" : [
                0.7071068286895752,
                0,
                0,
                0.7071067094802856
            ]
        }
    ],
    "meshes" : [
        {
            "name" : "Cube.011_Cube.018",
            "primitives" : [
                {
                    "attributes" : {
                        "POSITION" : 0,
                        "NORMAL" : 1,
                        "TEXCOORD_0" : 2
                    },
                    "indices" : 3
                }
            ]
        }
    ],
    "accessors" : [
        {
            "bufferView" : 0,
            "componentType" : 5126,
            "count" : 2516,
            "max" : [
                2.684936046600342,
                4.532390117645264,
                1.7172369956970215
            ],
            "min" : [
                -2.684936046600342,
                -4.532390117645264,
                -1.7172369956970215
            ],
            "type" : "VEC3"
        },
        {
            "bufferView" : 1,
            "componentType" : 5126,
            "count" : 2516,
            "type" : "VEC3"
        },
        {
            "bufferView" : 2,
            "componentType" : 5126,
            "count" : 2516,
            "type" : "VEC2"
        },
        {
            "bufferView" : 3,
            "componentType" : 5123,
            "count" : 7332,
            "type" : "SCALAR"
        }
    ],
    "bufferViews" : [
        {
            "buffer" : 0,
            "byteLength" : 30192,
            "byteOffset" : 0
        },
        {
            "buffer" : 0,
            "byteLength" : 30192,
            "byteOffset" : 30192
        },
        {
            "buffer" : 0,
            "byteLength" : 20128,
            "byteOffset" : 60384
        },
        {
            "buffer" : 0,
            "byteLength" : 14664,
            "byteOffset" : 80512
        }
    ],
    "buffers" : [
        {
            "byteLength" : 95176,
            "uri" : "data:application/octet-stream;base64,"
        }
    ]
}
