{
    "asset" : {
        "generator" : "Khronos glTF Blender I/O v1.8.19",
        "version" : "2.0"
    },
    "scene" : 0,
    "scenes" : [
        {
            "name" : "Scene",
            "nodes" : [
                0,
                1
            ]
        }
    ],
    "nodes" : [
        {
            "mesh" : 0,
            "name" : "rp_mei_posed_001_100k.001",
            "rotation" : [
                0.7071068286895752,
                0,
                0,
                0.7071067094802856
            ]
        },
        {
            "mesh" : 1,
            "name" : "Testo",
            "rotation" : [
                0.7071068286895752,
                0,
                0,
                0.7071068286895752
            ],
            "translation" : [
                -17.035310745239258,
                180.46551513671875,
                0
            ]
        }
    ],
    "materials" : [
        {
            "doubleSided" : true,
            "name" : "Default OBJ",
            "pbrMetallicRoughness" : {
                "baseColorFactor" : [
                    0.800000011920929,
                    0.800000011920929,
                    0.800000011920929,
                    1
                ],
                "metallicFactor" : 0,
                "roughnessFactor" : 0.5
            }
        },
        {
            "doubleSided" : true,
            "name" : "text_material",
            "pbrMetallicRoughness" : {
                "baseColorFactor" : [
                    0.800000011920929,
                    0.800000011920929,
                    0.800000011920929,
                    1
                ],
                "metallicFactor" : 0,
                "roughnessFactor" : 0.5
            }
        }
    ],
    "meshes" : [
        {
            "name" : "rp_mei_posed_001_100k.001",
            "primitives" : [
                {
                    "attributes" : {
                        "POSITION" : 0,
                        "NORMAL" : 1,
                        "TEXCOORD_0" : 2
                    },
                    "indices" : 3,
                    "material" : 0
                }
            ]
        },
        {
            "name" : "Testo",
            "primitives" : [
                {
                    "attributes" : {
                        "POSITION" : 4,
                        "NORMAL" : 5,
                        "TEXCOORD_0" : 6
                    },
                    "indices" : 7,
                    "material" : 1
                }
            ]
        }
    ],
    "accessors" : [
        {
            "bufferView" : 0,
            "componentType" : 5126,
            "count" : 52366,
            "max" : [
                26.82200050354004,
                30.58060073852539,
                -0.16110000014305115
            ],
            "min" : [
                -26.82200050354004,
                -30.58060073852539,
                -169.9456024169922
            ],
            "type" : "VEC3"
        },
        {
            "bufferView" : 1,
            "componentType" : 5126,
            "count" : 52366,
            "type" : "VEC3"
        },
        {
            "bufferView" : 2,
            "componentType" : 5126,
            "count" : 52366,
            "type" : "VEC2"
        },
        {
            "bufferView" : 3,
            "componentType" : 5123,
            "count" : 300024,
            "type" : "SCALAR"
        },
        {
            "bufferView" : 4,
            "componentType" : 5126,
            "count" : 5090,
            "max" : [
                39.773582458496094,
                1.8799999952316284,
                0.07547169923782349
            ],
            "min" : [
                0.6792452931404114,
                -1.8799999952316284,
                -13.207547187805176
            ],
            "type" : "VEC3"
        },
        {
            "bufferView" : 5,
            "componentType" : 5126,
            "count" : 5090,
            "type" : "VEC3"
        },
        {
            "bufferView" : 6,
            "componentType" : 5126,
            "count" : 5090,
            "type" : "VEC2"
        },
        {
            "bufferView" : 7,
            "componentType" : 5123,
            "count" : 9792,
            "type" : "SCALAR"
        }
    ],
    "bufferViews" : [
        {
            "buffer" : 0,
            "byteLength" : 628392,
            "byteOffset" : 0
        },
        {
            "buffer" : 0,
            "byteLength" : 628392,
            "byteOffset" : 628392
        },
        {
            "buffer" : 0,
            "byteLength" : 418928,
            "byteOffset" : 1256784
        },
        {
            "buffer" : 0,
            "byteLength" : 600048,
            "byteOffset" : 1675712
        },
        {
            "buffer" : 0,
            "byteLength" : 61080,
            "byteOffset" : 2275760
        },
        {
            "buffer" : 0,
            "byteLength" : 61080,
            "byteOffset" : 2336840
        },
        {
            "buffer" : 0,
            "byteLength" : 40720,
            "byteOffset" : 2397920
        },
        {
            "buffer" : 0,
            "byteLength" : 19584,
            "byteOffset" : 2438640
        }
    ],
    "buffers" : [
        {
            "byteLength" : 2458224,
            "uri" : "data:application/octet-stream;base64,"
        }
    ]
}
