{
    "asset" : {
        "generator" : "Khronos glTF Blender I/O v1.8.19",
        "version" : "2.0"
    },
    "scene" : 0,
    "scenes" : [
        {
            "name" : "Scene",
            "nodes" : [
                0
            ]
        }
    ],
    "nodes" : [
        {
            "mesh" : 0,
            "name" : "Window Free 3D Model",
            "scale" : [
                0.20000000298023224,
                0.20000000298023224,
                0.20000000298023224
            ]
        }
    ],
    "meshes" : [
        {
            "name" : "Window Free 3D Model",
            "primitives" : [
                {
                    "attributes" : {
                        "POSITION" : 0,
                        "NORMAL" : 1,
                        "TEXCOORD_0" : 2
                    },
                    "indices" : 3
                }
            ]
        }
    ],
    "accessors" : [
        {
            "bufferView" : 0,
            "componentType" : 5126,
            "count" : 7419,
            "max" : [
                749.5621337890625,
                800.07470703125,
                115.46205139160156
            ],
            "min" : [
                -750.4378662109375,
                -799.92529296875,
                -55.6783332824707
            ],
            "type" : "VEC3"
        },
        {
            "bufferView" : 1,
            "componentType" : 5126,
            "count" : 7419,
            "type" : "VEC3"
        },
        {
            "bufferView" : 2,
            "componentType" : 5126,
            "count" : 7419,
            "type" : "VEC2"
        },
        {
            "bufferView" : 3,
            "componentType" : 5123,
            "count" : 26562,
            "type" : "SCALAR"
        }
    ],
    "bufferViews" : [
        {
            "buffer" : 0,
            "byteLength" : 89028,
            "byteOffset" : 0
        },
        {
            "buffer" : 0,
            "byteLength" : 89028,
            "byteOffset" : 89028
        },
        {
            "buffer" : 0,
            "byteLength" : 59352,
            "byteOffset" : 178056
        },
        {
            "buffer" : 0,
            "byteLength" : 53124,
            "byteOffset" : 237408
        }
    ],
    "buffers" : [
        {
            "byteLength" : 290532,
            "uri" : "data:application/octet-stream;base64,"
        }
    ]
}
