{
    "asset" : {
        "generator" : "Khronos glTF Blender I/O v1.8.19",
        "version" : "2.0"
    },
    "scene" : 0,
    "scenes" : [
        {
            "name" : "Scene",
            "nodes" : [
                0,
                1,
                2,
                3,
                4,
                5,
                6,
                7,
                8,
                9,
                10
            ]
        }
    ],
    "nodes" : [
        {
            "mesh" : 0,
            "name" : "object_1"
        },
        {
            "mesh" : 1,
            "name" : "object_2"
        },
        {
            "mesh" : 2,
            "name" : "object_3"
        },
        {
            "mesh" : 3,
            "name" : "object_4"
        },
        {
            "mesh" : 4,
            "name" : "object_5"
        },
        {
            "mesh" : 5,
            "name" : "object_6"
        },
        {
            "mesh" : 6,
            "name" : "object_7"
        },
        {
            "mesh" : 7,
            "name" : "object_8"
        },
        {
            "mesh" : 8,
            "name" : "object_9"
        },
        {
            "mesh" : 9,
            "name" : "object_10"
        },
        {
            "mesh" : 10,
            "name" : "object_11"
        }
    ],
    "materials" : [
        {
            "doubleSided" : true,
            "name" : "metallo",
            "pbrMetallicRoughness" : {
                "baseColorFactor" : [
                    0.800000011920929,
                    0.800000011920929,
                    0.800000011920929,
                    1
                ],
                "metallicFactor" : 0,
                "roughnessFactor" : 0.5
            }
        },
        {
            "doubleSided" : true,
            "name" : "legno",
            "pbrMetallicRoughness" : {
                "baseColorFactor" : [
                    0.800000011920929,
                    0.800000011920929,
                    0.800000011920929,
                    1
                ],
                "metallicFactor" : 0,
                "roughnessFactor" : 0.5
            }
        }
    ],
    "meshes" : [
        {
            "name" : "Mesh_0",
            "primitives" : [
                {
                    "attributes" : {
                        "POSITION" : 0,
                        "NORMAL" : 1,
                        "TEXCOORD_0" : 2
                    },
                    "indices" : 3,
                    "material" : 0
                }
            ]
        },
        {
            "name" : "Mesh_1",
            "primitives" : [
                {
                    "attributes" : {
                        "POSITION" : 4,
                        "NORMAL" : 5,
                        "TEXCOORD_0" : 6
                    },
                    "indices" : 7,
                    "material" : 0
                }
            ]
        },
        {
            "name" : "Mesh_2",
            "primitives" : [
                {
                    "attributes" : {
                        "POSITION" : 8,
                        "NORMAL" : 9,
                        "TEXCOORD_0" : 10
                    },
                    "indices" : 11,
                    "material" : 1
                }
            ]
        },
        {
            "name" : "Mesh_3",
            "primitives" : [
                {
                    "attributes" : {
                        "POSITION" : 12,
                        "NORMAL" : 13,
                        "TEXCOORD_0" : 14
                    },
                    "indices" : 15,
                    "material" : 1
                }
            ]
        },
        {
            "name" : "Mesh_4",
            "primitives" : [
                {
                    "attributes" : {
                        "POSITION" : 16,
                        "NORMAL" : 17,
                        "TEXCOORD_0" : 18
                    },
                    "indices" : 15,
                    "material" : 1
                }
            ]
        },
        {
            "name" : "Mesh_5",
            "primitives" : [
                {
                    "attributes" : {
                        "POSITION" : 19,
                        "NORMAL" : 20,
                        "TEXCOORD_0" : 21
                    },
                    "indices" : 11,
                    "material" : 1
                }
            ]
        },
        {
            "name" : "Mesh_6",
            "primitives" : [
                {
                    "attributes" : {
                        "POSITION" : 22,
                        "NORMAL" : 23,
                        "TEXCOORD_0" : 24
                    },
                    "indices" : 25,
                    "material" : 1
                }
            ]
        },
        {
            "name" : "Mesh_7",
            "primitives" : [
                {
                    "attributes" : {
                        "POSITION" : 26,
                        "NORMAL" : 27,
                        "TEXCOORD_0" : 28
                    },
                    "indices" : 29,
                    "material" : 1
                }
            ]
        },
        {
            "name" : "Mesh_8",
            "primitives" : [
                {
                    "attributes" : {
                        "POSITION" : 30,
                        "NORMAL" : 31,
                        "TEXCOORD_0" : 32
                    },
                    "indices" : 33,
                    "material" : 1
                }
            ]
        },
        {
            "name" : "Mesh_9",
            "primitives" : [
                {
                    "attributes" : {
                        "POSITION" : 34,
                        "NORMAL" : 35,
                        "TEXCOORD_0" : 36
                    },
                    "indices" : 37,
                    "material" : 0
                }
            ]
        },
        {
            "name" : "Mesh_10",
            "primitives" : [
                {
                    "attributes" : {
                        "POSITION" : 38,
                        "NORMAL" : 39,
                        "TEXCOORD_0" : 40
                    },
                    "indices" : 41,
                    "material" : 0
                }
            ]
        }
    ],
    "accessors" : [
        {
            "bufferView" : 0,
            "componentType" : 5126,
            "count" : 761,
            "max" : [
                -34.741851806640625,
                20,
                -17.678504943847656
            ],
            "min" : [
                -37.75,
                -20,
                -20.087982177734375
            ],
            "type" : "VEC3"
        },
        {
            "bufferView" : 1,
            "componentType" : 5126,
            "count" : 761,
            "type" : "VEC3"
        },
        {
            "bufferView" : 2,
            "componentType" : 5126,
            "count" : 761,
            "type" : "VEC2"
        },
        {
            "bufferView" : 3,
            "componentType" : 5123,
            "count" : 858,
            "type" : "SCALAR"
        },
        {
            "bufferView" : 4,
            "componentType" : 5126,
            "count" : 762,
            "max" : [
                37.75,
                20,
                -17.678504943847656
            ],
            "min" : [
                34.741851806640625,
                -20,
                -20.087982177734375
            ],
            "type" : "VEC3"
        },
        {
            "bufferView" : 5,
            "componentType" : 5126,
            "count" : 762,
            "type" : "VEC3"
        },
        {
            "bufferView" : 6,
            "componentType" : 5126,
            "count" : 762,
            "type" : "VEC2"
        },
        {
            "bufferView" : 7,
            "componentType" : 5123,
            "count" : 858,
            "type" : "SCALAR"
        },
        {
            "bufferView" : 8,
            "componentType" : 5126,
            "count" : 70,
            "max" : [
                -36.25,
                18.5,
                18.321495056152344
            ],
            "min" : [
                -37.75,
                -18.5,
                -17.678504943847656
            ],
            "type" : "VEC3"
        },
        {
            "bufferView" : 9,
            "componentType" : 5126,
            "count" : 70,
            "type" : "VEC3"
        },
        {
            "bufferView" : 10,
            "componentType" : 5126,
            "count" : 70,
            "type" : "VEC2"
        },
        {
            "bufferView" : 11,
            "componentType" : 5123,
            "count" : 84,
            "type" : "SCALAR"
        },
        {
            "bufferView" : 12,
            "componentType" : 5126,
            "count" : 120,
            "max" : [
                37.75,
                20,
                18.321495056152344
            ],
            "min" : [
                -37.75,
                18.5,
                -17.678504943847656
            ],
            "type" : "VEC3"
        },
        {
            "bufferView" : 13,
            "componentType" : 5126,
            "count" : 120,
            "type" : "VEC3"
        },
        {
            "bufferView" : 14,
            "componentType" : 5126,
            "count" : 120,
            "type" : "VEC2"
        },
        {
            "bufferView" : 15,
            "componentType" : 5123,
            "count" : 144,
            "type" : "SCALAR"
        },
        {
            "bufferView" : 16,
            "componentType" : 5126,
            "count" : 120,
            "max" : [
                37.75,
                -18.5,
                18.321495056152344
            ],
            "min" : [
                -37.75,
                -20,
                -17.678504943847656
            ],
            "type" : "VEC3"
        },
        {
            "bufferView" : 17,
            "componentType" : 5126,
            "count" : 120,
            "type" : "VEC3"
        },
        {
            "bufferView" : 18,
            "componentType" : 5126,
            "count" : 120,
            "type" : "VEC2"
        },
        {
            "bufferView" : 19,
            "componentType" : 5126,
            "count" : 70,
            "max" : [
                37.75,
                18.5,
                18.321495056152344
            ],
            "min" : [
                36.25,
                -18.5,
                -17.678504943847656
            ],
            "type" : "VEC3"
        },
        {
            "bufferView" : 20,
            "componentType" : 5126,
            "count" : 70,
            "type" : "VEC3"
        },
        {
            "bufferView" : 21,
            "componentType" : 5126,
            "count" : 70,
            "type" : "VEC2"
        },
        {
            "bufferView" : 22,
            "componentType" : 5126,
            "count" : 122,
            "max" : [
                36.25,
                18.5,
                -16.928504943847656
            ],
            "min" : [
                -36.25,
                -18.5,
                -17.678504943847656
            ],
            "type" : "VEC3"
        },
        {
            "bufferView" : 23,
            "componentType" : 5126,
            "count" : 122,
            "type" : "VEC3"
        },
        {
            "bufferView" : 24,
            "componentType" : 5126,
            "count" : 122,
            "type" : "VEC2"
        },
        {
            "bufferView" : 25,
            "componentType" : 5123,
            "count" : 144,
            "type" : "SCALAR"
        },
        {
            "bufferView" : 26,
            "componentType" : 5126,
            "count" : 969,
            "max" : [
                37.75,
                19.799999237060547,
                19.821495056152344
            ],
            "min" : [
                0,
                -20,
                18.321495056152344
            ],
            "type" : "VEC3"
        },
        {
            "bufferView" : 27,
            "componentType" : 5126,
            "count" : 969,
            "type" : "VEC3"
        },
        {
            "bufferView" : 28,
            "componentType" : 5126,
            "count" : 969,
            "type" : "VEC2"
        },
        {
            "bufferView" : 29,
            "componentType" : 5123,
            "count" : 1080,
            "type" : "SCALAR"
        },
        {
            "bufferView" : 30,
            "componentType" : 5126,
            "count" : 973,
            "max" : [
                0,
                19.799999237060547,
                19.821495056152344
            ],
            "min" : [
                -37.75,
                -20,
                18.321495056152344
            ],
            "type" : "VEC3"
        },
        {
            "bufferView" : 31,
            "componentType" : 5126,
            "count" : 973,
            "type" : "VEC3"
        },
        {
            "bufferView" : 32,
            "componentType" : 5126,
            "count" : 973,
            "type" : "VEC2"
        },
        {
            "bufferView" : 33,
            "componentType" : 5123,
            "count" : 1080,
            "type" : "SCALAR"
        },
        {
            "bufferView" : 34,
            "componentType" : 5126,
            "count" : 768,
            "max" : [
                -1.181427001953125,
                1.5001925230026245,
                20.087982177734375
            ],
            "min" : [
                -4.1834564208984375,
                -1.5008469820022583,
                19.821495056152344
            ],
            "type" : "VEC3"
        },
        {
            "bufferView" : 35,
            "componentType" : 5126,
            "count" : 768,
            "type" : "VEC3"
        },
        {
            "bufferView" : 36,
            "componentType" : 5126,
            "count" : 768,
            "type" : "VEC2"
        },
        {
            "bufferView" : 37,
            "componentType" : 5123,
            "count" : 768,
            "type" : "SCALAR"
        },
        {
            "bufferView" : 38,
            "componentType" : 5126,
            "count" : 768,
            "max" : [
                4.2010040283203125,
                1.5003470182418823,
                20.087982177734375
            ],
            "min" : [
                1.1989898681640625,
                -1.5006924867630005,
                19.821495056152344
            ],
            "type" : "VEC3"
        },
        {
            "bufferView" : 39,
            "componentType" : 5126,
            "count" : 768,
            "type" : "VEC3"
        },
        {
            "bufferView" : 40,
            "componentType" : 5126,
            "count" : 768,
            "type" : "VEC2"
        },
        {
            "bufferView" : 41,
            "componentType" : 5123,
            "count" : 768,
            "type" : "SCALAR"
        }
    ],
    "bufferViews" : [
        {
            "buffer" : 0,
            "byteLength" : 9132,
            "byteOffset" : 0
        },
        {
            "buffer" : 0,
            "byteLength" : 9132,
            "byteOffset" : 9132
        },
        {
            "buffer" : 0,
            "byteLength" : 6088,
            "byteOffset" : 18264
        },
        {
            "buffer" : 0,
            "byteLength" : 1716,
            "byteOffset" : 24352
        },
        {
            "buffer" : 0,
            "byteLength" : 9144,
            "byteOffset" : 26068
        },
        {
            "buffer" : 0,
            "byteLength" : 9144,
            "byteOffset" : 35212
        },
        {
            "buffer" : 0,
            "byteLength" : 6096,
            "byteOffset" : 44356
        },
        {
            "buffer" : 0,
            "byteLength" : 1716,
            "byteOffset" : 50452
        },
        {
            "buffer" : 0,
            "byteLength" : 840,
            "byteOffset" : 52168
        },
        {
            "buffer" : 0,
            "byteLength" : 840,
            "byteOffset" : 53008
        },
        {
            "buffer" : 0,
            "byteLength" : 560,
            "byteOffset" : 53848
        },
        {
            "buffer" : 0,
            "byteLength" : 168,
            "byteOffset" : 54408
        },
        {
            "buffer" : 0,
            "byteLength" : 1440,
            "byteOffset" : 54576
        },
        {
            "buffer" : 0,
            "byteLength" : 1440,
            "byteOffset" : 56016
        },
        {
            "buffer" : 0,
            "byteLength" : 960,
            "byteOffset" : 57456
        },
        {
            "buffer" : 0,
            "byteLength" : 288,
            "byteOffset" : 58416
        },
        {
            "buffer" : 0,
            "byteLength" : 1440,
            "byteOffset" : 58704
        },
        {
            "buffer" : 0,
            "byteLength" : 1440,
            "byteOffset" : 60144
        },
        {
            "buffer" : 0,
            "byteLength" : 960,
            "byteOffset" : 61584
        },
        {
            "buffer" : 0,
            "byteLength" : 840,
            "byteOffset" : 62544
        },
        {
            "buffer" : 0,
            "byteLength" : 840,
            "byteOffset" : 63384
        },
        {
            "buffer" : 0,
            "byteLength" : 560,
            "byteOffset" : 64224
        },
        {
            "buffer" : 0,
            "byteLength" : 1464,
            "byteOffset" : 64784
        },
        {
            "buffer" : 0,
            "byteLength" : 1464,
            "byteOffset" : 66248
        },
        {
            "buffer" : 0,
            "byteLength" : 976,
            "byteOffset" : 67712
        },
        {
            "buffer" : 0,
            "byteLength" : 288,
            "byteOffset" : 68688
        },
        {
            "buffer" : 0,
            "byteLength" : 11628,
            "byteOffset" : 68976
        },
        {
            "buffer" : 0,
            "byteLength" : 11628,
            "byteOffset" : 80604
        },
        {
            "buffer" : 0,
            "byteLength" : 7752,
            "byteOffset" : 92232
        },
        {
            "buffer" : 0,
            "byteLength" : 2160,
            "byteOffset" : 99984
        },
        {
            "buffer" : 0,
            "byteLength" : 11676,
            "byteOffset" : 102144
        },
        {
            "buffer" : 0,
            "byteLength" : 11676,
            "byteOffset" : 113820
        },
        {
            "buffer" : 0,
            "byteLength" : 7784,
            "byteOffset" : 125496
        },
        {
            "buffer" : 0,
            "byteLength" : 2160,
            "byteOffset" : 133280
        },
        {
            "buffer" : 0,
            "byteLength" : 9216,
            "byteOffset" : 135440
        },
        {
            "buffer" : 0,
            "byteLength" : 9216,
            "byteOffset" : 144656
        },
        {
            "buffer" : 0,
            "byteLength" : 6144,
            "byteOffset" : 153872
        },
        {
            "buffer" : 0,
            "byteLength" : 1536,
            "byteOffset" : 160016
        },
        {
            "buffer" : 0,
            "byteLength" : 9216,
            "byteOffset" : 161552
        },
        {
            "buffer" : 0,
            "byteLength" : 9216,
            "byteOffset" : 170768
        },
        {
            "buffer" : 0,
            "byteLength" : 6144,
            "byteOffset" : 179984
        },
        {
            "buffer" : 0,
            "byteLength" : 1536,
            "byteOffset" : 186128
        }
    ],
    "buffers" : [
        {
            "byteLength" : 187664,
            "uri" : "data:application/octet-stream;base64,"
        }
    ]
}
