{
    "asset" : {
        "generator" : "Khronos glTF Blender I/O v1.8.19",
        "version" : "2.0"
    },
    "scene" : 0,
    "scenes" : [
        {
            "name" : "Scene",
            "nodes" : [
                0
            ]
        }
    ],
    "nodes" : [
        {
            "mesh" : 0,
            "name" : "shelf",
            "rotation" : [
                0.7071068286895752,
                0,
                0,
                0.7071067094802856
            ],
            "translation" : [
                -20,
                -7.050000190734863,
                -9.25
            ]
        }
    ],
    "materials" : [
        {
            "doubleSided" : true,
            "name" : "M_01R41",
            "pbrMetallicRoughness" : {
                "baseColorFactor" : [
                    0.800000011920929,
                    0.800000011920929,
                    0.800000011920929,
                    1
                ],
                "metallicFactor" : 0,
                "roughnessFactor" : 0.5
            }
        }
    ],
    "meshes" : [
        {
            "name" : "shelf",
            "primitives" : [
                {
                    "attributes" : {
                        "POSITION" : 0,
                        "NORMAL" : 1,
                        "TEXCOORD_0" : 2
                    },
                    "indices" : 3,
                    "material" : 0
                }
            ]
        }
    ],
    "accessors" : [
        {
            "bufferView" : 0,
            "componentType" : 5126,
            "count" : 2197,
            "max" : [
                40,
                18.78190040588379,
                1.8047800463849052e-14
            ],
            "min" : [
                -2.021350101188979e-12,
                0.2818540036678314,
                -14.12559986114502
            ],
            "type" : "VEC3"
        },
        {
            "bufferView" : 1,
            "componentType" : 5126,
            "count" : 2197,
            "type" : "VEC3"
        },
        {
            "bufferView" : 2,
            "componentType" : 5126,
            "count" : 2197,
            "type" : "VEC2"
        },
        {
            "bufferView" : 3,
            "componentType" : 5123,
            "count" : 5928,
            "type" : "SCALAR"
        }
    ],
    "bufferViews" : [
        {
            "buffer" : 0,
            "byteLength" : 26364,
            "byteOffset" : 0
        },
        {
            "buffer" : 0,
            "byteLength" : 26364,
            "byteOffset" : 26364
        },
        {
            "buffer" : 0,
            "byteLength" : 17576,
            "byteOffset" : 52728
        },
        {
            "buffer" : 0,
            "byteLength" : 11856,
            "byteOffset" : 70304
        }
    ],
    "buffers" : [
        {
            "byteLength" : 82160,
            "uri" : "data:application/octet-stream;base64,"
        }
    ]
}
