{"accessors" : [{"bufferView" : 0, "byteOffset" : 0, "componentType" : 5123, "count" : 858, "type" : "SCALAR", "max" : [739], "min" : [0]}, {"bufferView" : 1, "byteOffset" : 0, "componentType" : 5126, "count" : 740, "type" : "VEC3", "max" : [1538.30859375, 467.33648681640625, 1.3000001907348633], "min" : [1535.3004150390625, 464.927001953125, -38.70000076293945], "name" : "POSITION"}, {"bufferView" : 1, "byteOffset" : 12, "componentType" : 5126, "count" : 740, "type" : "VEC2", "max" : [0.99853515625, -0], "min" : [0, -0.9170932173728943], "name" : "TEXCOORD_0"}, {"bufferView" : 1, "byteOffset" : 20, "componentType" : 5126, "count" : 740, "type" : "VEC3", "max" : [1.0000044107437134, 1.0000044107437134, 1.0000044107437134], "min" : [-1.0000044107437134, -1.0000044107437134, -1.0000044107437134], "name" : "NORMAL"}, {"bufferView" : 0, "byteOffset" : 1716, "componentType" : 5123, "count" : 858, "type" : "SCALAR", "max" : [737], "min" : [0]}, {"bufferView" : 2, "byteOffset" : 0, "componentType" : 5126, "count" : 738, "type" : "VEC3", "max" : [1465.816650390625, 467.33648681640625, 1.3000001907348633], "min" : [1462.80859375, 464.927001953125, -38.70000076293945], "name" : "POSITION"}, {"bufferView" : 2, "byteOffset" : 12, "componentType" : 5126, "count" : 738, "type" : "VEC2", "max" : [0.99853515625, -0], "min" : [0, -0.9170932173728943], "name" : "TEXCOORD_0"}, {"bufferView" : 2, "byteOffset" : 20, "componentType" : 5126, "count" : 738, "type" : "VEC3", "max" : [1.0000044107437134, 1.0000044107437134, 1.0000044107437134], "min" : [-1.0000044107437134, -1.0000044107437134, -1.0000044107437134], "name" : "NORMAL"}, {"bufferView" : 0, "byteOffset" : 3432, "componentType" : 5123, "count" : 84, "type" : "SCALAR", "max" : [69], "min" : [0]}, {"bufferView" : 3, "byteOffset" : 0, "componentType" : 5126, "count" : 70, "type" : "VEC3", "max" : [1464.30859375, 464.927001953125, -0.20000000298023224], "min" : [1462.80859375, 428.927001953125, -37.20000076293945], "name" : "POSITION"}, {"bufferView" : 3, "byteOffset" : 12, "componentType" : 5126, "count" : 70, "type" : "VEC2", "max" : [0.5957573652267456, -0], "min" : [0, -0.99853515625], "name" : "TEXCOORD_0"}, {"bufferView" : 3, "byteOffset" : 20, "componentType" : 5126, "count" : 70, "type" : "VEC3", "max" : [1.0000044107437134, 1.0000044107437134, 1.0000044107437134], "min" : [-1.0000044107437134, -1.0000044107437134, -1.0000044107437134], "name" : "NORMAL"}, {"bufferView" : 0, "byteOffset" : 3600, "componentType" : 5123, "count" : 144, "type" : "SCALAR", "max" : [121], "min" : [0]}, {"bufferView" : 4, "byteOffset" : 0, "componentType" : 5126, "count" : 122, "type" : "VEC3", "max" : [1538.30859375, 464.927001953125, 1.2999999523162842], "min" : [1462.80859375, 428.927001953125, -0.20000000298023224], "name" : "POSITION"}, {"bufferView" : 4, "byteOffset" : 12, "componentType" : 5126, "count" : 122, "type" : "VEC2", "max" : [0.99853515625, -0], "min" : [0, -0.9452435970306396], "name" : "TEXCOORD_0"}, {"bufferView" : 4, "byteOffset" : 20, "componentType" : 5126, "count" : 122, "type" : "VEC3", "max" : [1.0000044107437134, 1.0000044107437134, 1.0000044107437134], "min" : [-1.0000044107437134, -1.0000044107437134, -1.0000044107437134], "name" : "NORMAL"}, {"bufferView" : 0, "byteOffset" : 3888, "componentType" : 5123, "count" : 144, "type" : "SCALAR", "max" : [121], "min" : [0]}, {"bufferView" : 5, "byteOffset" : 0, "componentType" : 5126, "count" : 122, "type" : "VEC3", "max" : [1538.30859375, 464.927001953125, -37.20000076293945], "min" : [1462.80859375, 428.927001953125, -38.70000076293945], "name" : "POSITION"}, {"bufferView" : 5, "byteOffset" : 12, "componentType" : 5126, "count" : 122, "type" : "VEC2", "max" : [0.99853515625, -0], "min" : [0, -0.9452435970306396], "name" : "TEXCOORD_0"}, {"bufferView" : 5, "byteOffset" : 20, "componentType" : 5126, "count" : 122, "type" : "VEC3", "max" : [1.0000044107437134, 1.0000044107437134, 1.0000044107437134], "min" : [-1.0000044107437134, -1.0000044107437134, -1.0000044107437134], "name" : "NORMAL"}, {"bufferView" : 0, "byteOffset" : 4176, "componentType" : 5123, "count" : 84, "type" : "SCALAR", "max" : [69], "min" : [0]}, {"bufferView" : 6, "byteOffset" : 0, "componentType" : 5126, "count" : 70, "type" : "VEC3", "max" : [1538.30859375, 464.927001953125, -0.20000000298023224], "min" : [1536.80859375, 428.927001953125, -37.20000076293945], "name" : "POSITION"}, {"bufferView" : 6, "byteOffset" : 12, "componentType" : 5126, "count" : 70, "type" : "VEC2", "max" : [0.5957573652267456, -0], "min" : [0, -0.99853515625], "name" : "TEXCOORD_0"}, {"bufferView" : 6, "byteOffset" : 20, "componentType" : 5126, "count" : 70, "type" : "VEC3", "max" : [1.0000044107437134, 1.0000044107437134, 1.0000044107437134], "min" : [-1.0000044107437134, -1.0000044107437134, -1.0000044107437134], "name" : "NORMAL"}, {"bufferView" : 0, "byteOffset" : 4344, "componentType" : 5123, "count" : 144, "type" : "SCALAR", "max" : [122], "min" : [0]}, {"bufferView" : 7, "byteOffset" : 0, "componentType" : 5126, "count" : 123, "type" : "VEC3", "max" : [1536.80859375, 464.927001953125, -0.20000000298023224], "min" : [1464.30859375, 464.177001953125, -37.20000076293945], "name" : "POSITION"}, {"bufferView" : 7, "byteOffset" : 12, "componentType" : 5126, "count" : 123, "type" : "VEC2", "max" : [0.99853515625, -0], "min" : [0, -0.9690269827842712], "name" : "TEXCOORD_0"}, {"bufferView" : 7, "byteOffset" : 20, "componentType" : 5126, "count" : 123, "type" : "VEC3", "max" : [1.0000044107437134, 1.0000044107437134, 1.0000044107437134], "min" : [-1.0000044107437134, -1.0000044107437134, -1.0000044107437134], "name" : "NORMAL"}, {"bufferView" : 0, "byteOffset" : 4632, "componentType" : 5123, "count" : 984, "type" : "SCALAR", "max" : [813], "min" : [0]}, {"bufferView" : 8, "byteOffset" : 0, "componentType" : 5126, "count" : 814, "type" : "VEC3", "max" : [1538.30859375, 428.927001953125, 1.100000023841858], "min" : [1462.80859375, 427.427001953125, -38.70000076293945], "name" : "POSITION"}, {"bufferView" : 8, "byteOffset" : 12, "componentType" : 5126, "count" : 814, "type" : "VEC2", "max" : [0.99853515625, -0], "min" : [0, -0.9670581817626953], "name" : "TEXCOORD_0"}, {"bufferView" : 8, "byteOffset" : 20, "componentType" : 5126, "count" : 814, "type" : "VEC3", "max" : [1.0000044107437134, 1.0000044107437134, 1.0000044107437134], "min" : [-1.0000044107437134, -1.0000044107437134, -1.0000044107437134], "name" : "NORMAL"}, {"bufferView" : 0, "byteOffset" : 6600, "componentType" : 5123, "count" : 6144, "type" : "SCALAR", "max" : [5119], "min" : [0]}, {"bufferView" : 9, "byteOffset" : 0, "componentType" : 5126, "count" : 5120, "type" : "VEC3", "max" : [1502.0601806640625, 427.427001953125, -1.3989949226379395], "min" : [1499.0582275390625, 427.1604919433594, -4.4000349044799805], "name" : "POSITION"}, {"bufferView" : 9, "byteOffset" : 12, "componentType" : 5126, "count" : 5120, "type" : "VEC2", "max" : [1, -0], "min" : [0, -1], "name" : "TEXCOORD_0"}, {"bufferView" : 9, "byteOffset" : 20, "componentType" : 5126, "count" : 5120, "type" : "VEC3", "max" : [0.9979647397994995, 1.0000044107437134, 0.9979673624038696], "min" : [-0.9979647397994995, -1.0000044107437134, -0.9931158423423767], "name" : "NORMAL"}], "asset" : {"generator" : "Aspose.3D 22.1", "version" : "2.0"}, "buffers" : [{"uri" : "data:application/octet-stream;base64,", "byteLength" : 321136}], "bufferViews" : [{"buffer" : 0, "byteOffset" : 0, "byteLength" : 18888, "target" : 34963}, {"buffer" : 0, "byteOffset" : 18892, "byteLength" : 27456, "byteStride" : 32, "target" : 34962}, {"buffer" : 0, "byteOffset" : 46352, "byteLength" : 27456, "byteStride" : 32, "target" : 34962}, {"buffer" : 0, "byteOffset" : 73812, "byteLength" : 2688, "byteStride" : 32, "target" : 34962}, {"buffer" : 0, "byteOffset" : 76504, "byteLength" : 4608, "byteStride" : 32, "target" : 34962}, {"buffer" : 0, "byteOffset" : 81116, "byteLength" : 4608, "byteStride" : 32, "target" : 34962}, {"buffer" : 0, "byteOffset" : 85728, "byteLength" : 2688, "byteStride" : 32, "target" : 34962}, {"buffer" : 0, "byteOffset" : 88420, "byteLength" : 4608, "byteStride" : 32, "target" : 34962}, {"buffer" : 0, "byteOffset" : 93032, "byteLength" : 31488, "byteStride" : 32, "target" : 34962}, {"buffer" : 0, "byteOffset" : 124524, "byteLength" : 196608, "byteStride" : 32, "target" : 34962}], "meshes" : [{"primitives" : [{"attributes" : {"POSITION" : 1, "TEXCOORD_0" : 2, "NORMAL" : 3}, "indices" : 0, "mode" : 4}], "name" : ""}, {"primitives" : [{"attributes" : {"POSITION" : 5, "TEXCOORD_0" : 6, "NORMAL" : 7}, "indices" : 4, "mode" : 4}], "name" : ""}, {"primitives" : [{"attributes" : {"POSITION" : 9, "TEXCOORD_0" : 10, "NORMAL" : 11}, "indices" : 8, "mode" : 4}], "name" : ""}, {"primitives" : [{"attributes" : {"POSITION" : 13, "TEXCOORD_0" : 14, "NORMAL" : 15}, "indices" : 12, "mode" : 4}], "name" : ""}, {"primitives" : [{"attributes" : {"POSITION" : 17, "TEXCOORD_0" : 18, "NORMAL" : 19}, "indices" : 16, "mode" : 4}], "name" : ""}, {"primitives" : [{"attributes" : {"POSITION" : 21, "TEXCOORD_0" : 22, "NORMAL" : 23}, "indices" : 20, "mode" : 4}], "name" : ""}, {"primitives" : [{"attributes" : {"POSITION" : 25, "TEXCOORD_0" : 26, "NORMAL" : 27}, "indices" : 24, "mode" : 4}], "name" : ""}, {"primitives" : [{"attributes" : {"POSITION" : 29, "TEXCOORD_0" : 30, "NORMAL" : 31}, "indices" : 28, "mode" : 4}], "name" : ""}, {"primitives" : [{"attributes" : {"POSITION" : 33, "TEXCOORD_0" : 34, "NORMAL" : 35}, "indices" : 32, "mode" : 4}], "name" : ""}], "nodes" : [{"mesh" : 0, "name" : "object_1"}, {"mesh" : 1, "name" : "object_2"}, {"mesh" : 2, "name" : "object_3"}, {"mesh" : 3, "name" : "object_4"}, {"mesh" : 4, "name" : "object_5"}, {"mesh" : 5, "name" : "object_6"}, {"mesh" : 6, "name" : "object_7"}, {"mesh" : 7, "name" : "object_8"}, {"mesh" : 8, "name" : "object_9"}], "scene" : 0, "scenes" : [{"nodes" : [0, 1, 2, 3, 4, 5, 6, 7, 8]}]}