{"accessors" : [{"bufferView" : 0, "byteOffset" : 0, "componentType" : 5123, "count" : 858, "type" : "SCALAR", "max" : [737], "min" : [0]}, {"bufferView" : 1, "byteOffset" : 0, "componentType" : 5126, "count" : 738, "type" : "VEC3", "max" : [-34.741851806640625, 20, -17.678504943847656], "min" : [-37.75, -20, -20.087982177734375], "name" : "POSITION"}, {"bufferView" : 1, "byteOffset" : 12, "componentType" : 5126, "count" : 738, "type" : "VEC2", "max" : [0.99853515625, -0], "min" : [0, -0.9170932173728943], "name" : "TEXCOORD_0"}, {"bufferView" : 1, "byteOffset" : 20, "componentType" : 5126, "count" : 738, "type" : "VEC3", "max" : [1.0000044107437134, 1.0000044107437134, 1.0000044107437134], "min" : [-1.0000044107437134, -1.0000044107437134, -1.0000044107437134], "name" : "NORMAL"}, {"bufferView" : 0, "byteOffset" : 1716, "componentType" : 5123, "count" : 858, "type" : "SCALAR", "max" : [738], "min" : [0]}, {"bufferView" : 2, "byteOffset" : 0, "componentType" : 5126, "count" : 739, "type" : "VEC3", "max" : [37.75, 20, -17.678504943847656], "min" : [34.741851806640625, -20, -20.087982177734375], "name" : "POSITION"}, {"bufferView" : 2, "byteOffset" : 12, "componentType" : 5126, "count" : 739, "type" : "VEC2", "max" : [0.99853515625, -0], "min" : [0, -0.9170932173728943], "name" : "TEXCOORD_0"}, {"bufferView" : 2, "byteOffset" : 20, "componentType" : 5126, "count" : 739, "type" : "VEC3", "max" : [1.0000044107437134, 1.0000044107437134, 1.0000044107437134], "min" : [-1.0000044107437134, -1.0000044107437134, -1.0000044107437134], "name" : "NORMAL"}, {"bufferView" : 0, "byteOffset" : 3432, "componentType" : 5123, "count" : 84, "type" : "SCALAR", "max" : [69], "min" : [0]}, {"bufferView" : 3, "byteOffset" : 0, "componentType" : 5126, "count" : 70, "type" : "VEC3", "max" : [-36.25, 18.5, 18.321495056152344], "min" : [-37.75, -18.5, -17.678504943847656], "name" : "POSITION"}, {"bufferView" : 3, "byteOffset" : 12, "componentType" : 5126, "count" : 70, "type" : "VEC2", "max" : [0.5957573652267456, -0], "min" : [0, -0.99853515625], "name" : "TEXCOORD_0"}, {"bufferView" : 3, "byteOffset" : 20, "componentType" : 5126, "count" : 70, "type" : "VEC3", "max" : [1.0000044107437134, 1.0000044107437134, 1.0000044107437134], "min" : [-1.0000044107437134, -1.0000044107437134, -1.0000044107437134], "name" : "NORMAL"}, {"bufferView" : 0, "byteOffset" : 3600, "componentType" : 5123, "count" : 144, "type" : "SCALAR", "max" : [119], "min" : [0]}, {"bufferView" : 4, "byteOffset" : 0, "componentType" : 5126, "count" : 120, "type" : "VEC3", "max" : [37.75, 20, 18.321495056152344], "min" : [-37.75, 18.5, -17.678504943847656], "name" : "POSITION"}, {"bufferView" : 4, "byteOffset" : 12, "componentType" : 5126, "count" : 120, "type" : "VEC2", "max" : [0.99853515625, -0], "min" : [0, -0.9452435970306396], "name" : "TEXCOORD_0"}, {"bufferView" : 4, "byteOffset" : 20, "componentType" : 5126, "count" : 120, "type" : "VEC3", "max" : [1.0000044107437134, 1.0000044107437134, 1.0000044107437134], "min" : [-1.0000044107437134, -1.0000044107437134, -1.0000044107437134], "name" : "NORMAL"}, {"bufferView" : 0, "byteOffset" : 3888, "componentType" : 5123, "count" : 144, "type" : "SCALAR", "max" : [119], "min" : [0]}, {"bufferView" : 5, "byteOffset" : 0, "componentType" : 5126, "count" : 120, "type" : "VEC3", "max" : [37.75, -18.5, 18.321495056152344], "min" : [-37.75, -20, -17.678504943847656], "name" : "POSITION"}, {"bufferView" : 5, "byteOffset" : 12, "componentType" : 5126, "count" : 120, "type" : "VEC2", "max" : [0.99853515625, -0], "min" : [0, -0.9452435970306396], "name" : "TEXCOORD_0"}, {"bufferView" : 5, "byteOffset" : 20, "componentType" : 5126, "count" : 120, "type" : "VEC3", "max" : [1.0000044107437134, 1.0000044107437134, 1.0000044107437134], "min" : [-1.0000044107437134, -1.0000044107437134, -1.0000044107437134], "name" : "NORMAL"}, {"bufferView" : 0, "byteOffset" : 4176, "componentType" : 5123, "count" : 84, "type" : "SCALAR", "max" : [69], "min" : [0]}, {"bufferView" : 6, "byteOffset" : 0, "componentType" : 5126, "count" : 70, "type" : "VEC3", "max" : [37.75, 18.5, 18.321495056152344], "min" : [36.25, -18.5, -17.678504943847656], "name" : "POSITION"}, {"bufferView" : 6, "byteOffset" : 12, "componentType" : 5126, "count" : 70, "type" : "VEC2", "max" : [0.5957573652267456, -0], "min" : [0, -0.99853515625], "name" : "TEXCOORD_0"}, {"bufferView" : 6, "byteOffset" : 20, "componentType" : 5126, "count" : 70, "type" : "VEC3", "max" : [1.0000044107437134, 1.0000044107437134, 1.0000044107437134], "min" : [-1.0000044107437134, -1.0000044107437134, -1.0000044107437134], "name" : "NORMAL"}, {"bufferView" : 0, "byteOffset" : 4344, "componentType" : 5123, "count" : 144, "type" : "SCALAR", "max" : [121], "min" : [0]}, {"bufferView" : 7, "byteOffset" : 0, "componentType" : 5126, "count" : 122, "type" : "VEC3", "max" : [36.25, 18.5, -16.928504943847656], "min" : [-36.25, -18.5, -17.678504943847656], "name" : "POSITION"}, {"bufferView" : 7, "byteOffset" : 12, "componentType" : 5126, "count" : 122, "type" : "VEC2", "max" : [0.99853515625, -0], "min" : [0, -0.9690269827842712], "name" : "TEXCOORD_0"}, {"bufferView" : 7, "byteOffset" : 20, "componentType" : 5126, "count" : 122, "type" : "VEC3", "max" : [1.0000044107437134, 1.0000044107437134, 1.0000044107437134], "min" : [-1.0000044107437134, -1.0000044107437134, -1.0000044107437134], "name" : "NORMAL"}, {"bufferView" : 0, "byteOffset" : 4632, "componentType" : 5123, "count" : 1080, "type" : "SCALAR", "max" : [892], "min" : [0]}, {"bufferView" : 8, "byteOffset" : 0, "componentType" : 5126, "count" : 893, "type" : "VEC3", "max" : [37.75, 19.799999237060547, 19.821495056152344], "min" : [0, -20, 18.321495056152344], "name" : "POSITION"}, {"bufferView" : 8, "byteOffset" : 12, "componentType" : 5126, "count" : 893, "type" : "VEC2", "max" : [0.5820297002792358, -0], "min" : [0, -0.99853515625], "name" : "TEXCOORD_0"}, {"bufferView" : 8, "byteOffset" : 20, "componentType" : 5126, "count" : 893, "type" : "VEC3", "max" : [1.0000044107437134, 1.0000044107437134, 1.0000044107437134], "min" : [-1.0000044107437134, -1.0000044107437134, -1.0000044107437134], "name" : "NORMAL"}, {"bufferView" : 0, "byteOffset" : 6792, "componentType" : 5123, "count" : 1080, "type" : "SCALAR", "max" : [892], "min" : [0]}, {"bufferView" : 9, "byteOffset" : 0, "componentType" : 5126, "count" : 893, "type" : "VEC3", "max" : [0, 19.799999237060547, 19.821495056152344], "min" : [-37.75, -20, 18.321495056152344], "name" : "POSITION"}, {"bufferView" : 9, "byteOffset" : 12, "componentType" : 5126, "count" : 893, "type" : "VEC2", "max" : [0.5820297002792358, -0], "min" : [0, -0.99853515625], "name" : "TEXCOORD_0"}, {"bufferView" : 9, "byteOffset" : 20, "componentType" : 5126, "count" : 893, "type" : "VEC3", "max" : [1.0000044107437134, 1.0000044107437134, 1.0000044107437134], "min" : [-1.0000044107437134, -1.0000044107437134, -1.0000044107437134], "name" : "NORMAL"}, {"bufferView" : 0, "byteOffset" : 8952, "componentType" : 5123, "count" : 768, "type" : "SCALAR", "max" : [639], "min" : [0]}, {"bufferView" : 10, "byteOffset" : 0, "componentType" : 5126, "count" : 640, "type" : "VEC3", "max" : [-1.181427001953125, 1.5001925230026245, 20.087982177734375], "min" : [-4.1834564208984375, -1.5008469820022583, 19.821495056152344], "name" : "POSITION"}, {"bufferView" : 10, "byteOffset" : 12, "componentType" : 5126, "count" : 640, "type" : "VEC2", "max" : [1, -0], "min" : [0, -1], "name" : "TEXCOORD_0"}, {"bufferView" : 10, "byteOffset" : 20, "componentType" : 5126, "count" : 640, "type" : "VEC3", "max" : [0.9979647397994995, 0.9979673624038696, 0.06383898109197617], "min" : [-1.0000044107437134, -1.0000044107437134, -1.0000044107437134], "name" : "NORMAL"}, {"bufferView" : 0, "byteOffset" : 10488, "componentType" : 5123, "count" : 768, "type" : "SCALAR", "max" : [639], "min" : [0]}, {"bufferView" : 11, "byteOffset" : 0, "componentType" : 5126, "count" : 640, "type" : "VEC3", "max" : [4.2010040283203125, 1.5003470182418823, 20.087982177734375], "min" : [1.1989898681640625, -1.5006924867630005, 19.821495056152344], "name" : "POSITION"}, {"bufferView" : 11, "byteOffset" : 12, "componentType" : 5126, "count" : 640, "type" : "VEC2", "max" : [1, -0], "min" : [0, -1], "name" : "TEXCOORD_0"}, {"bufferView" : 11, "byteOffset" : 20, "componentType" : 5126, "count" : 640, "type" : "VEC3", "max" : [0.9979647397994995, 0.9979673624038696, 0.06383898109197617], "min" : [-1.0000044107437134, -1.0000044107437134, -1.0000044107437134], "name" : "NORMAL"}], "asset" : {"generator" : "Aspose.3D 22.3", "version" : "2.0"}, "buffers" : [{"uri" : "data:application/octet-stream;base64,", "byteLength" : 204456}], "bufferViews" : [{"buffer" : 0, "byteOffset" : 0, "byteLength" : 12024, "target" : 34963}, {"buffer" : 0, "byteOffset" : 12028, "byteLength" : 27456, "byteStride" : 32, "target" : 34962}, {"buffer" : 0, "byteOffset" : 39488, "byteLength" : 27456, "byteStride" : 32, "target" : 34962}, {"buffer" : 0, "byteOffset" : 66948, "byteLength" : 2688, "byteStride" : 32, "target" : 34962}, {"buffer" : 0, "byteOffset" : 69640, "byteLength" : 4608, "byteStride" : 32, "target" : 34962}, {"buffer" : 0, "byteOffset" : 74252, "byteLength" : 4608, "byteStride" : 32, "target" : 34962}, {"buffer" : 0, "byteOffset" : 78864, "byteLength" : 2688, "byteStride" : 32, "target" : 34962}, {"buffer" : 0, "byteOffset" : 81556, "byteLength" : 4608, "byteStride" : 32, "target" : 34962}, {"buffer" : 0, "byteOffset" : 86168, "byteLength" : 34560, "byteStride" : 32, "target" : 34962}, {"buffer" : 0, "byteOffset" : 120732, "byteLength" : 34560, "byteStride" : 32, "target" : 34962}, {"buffer" : 0, "byteOffset" : 155296, "byteLength" : 24576, "byteStride" : 32, "target" : 34962}, {"buffer" : 0, "byteOffset" : 179876, "byteLength" : 24576, "byteStride" : 32, "target" : 34962}], "meshes" : [{"primitives" : [{"attributes" : {"POSITION" : 1, "TEXCOORD_0" : 2, "NORMAL" : 3}, "indices" : 0, "mode" : 4}], "name" : ""}, {"primitives" : [{"attributes" : {"POSITION" : 5, "TEXCOORD_0" : 6, "NORMAL" : 7}, "indices" : 4, "mode" : 4}], "name" : ""}, {"primitives" : [{"attributes" : {"POSITION" : 9, "TEXCOORD_0" : 10, "NORMAL" : 11}, "indices" : 8, "mode" : 4}], "name" : ""}, {"primitives" : [{"attributes" : {"POSITION" : 13, "TEXCOORD_0" : 14, "NORMAL" : 15}, "indices" : 12, "mode" : 4}], "name" : ""}, {"primitives" : [{"attributes" : {"POSITION" : 17, "TEXCOORD_0" : 18, "NORMAL" : 19}, "indices" : 16, "mode" : 4}], "name" : ""}, {"primitives" : [{"attributes" : {"POSITION" : 21, "TEXCOORD_0" : 22, "NORMAL" : 23}, "indices" : 20, "mode" : 4}], "name" : ""}, {"primitives" : [{"attributes" : {"POSITION" : 25, "TEXCOORD_0" : 26, "NORMAL" : 27}, "indices" : 24, "mode" : 4}], "name" : ""}, {"primitives" : [{"attributes" : {"POSITION" : 29, "TEXCOORD_0" : 30, "NORMAL" : 31}, "indices" : 28, "mode" : 4}], "name" : ""}, {"primitives" : [{"attributes" : {"POSITION" : 33, "TEXCOORD_0" : 34, "NORMAL" : 35}, "indices" : 32, "mode" : 4}], "name" : ""}, {"primitives" : [{"attributes" : {"POSITION" : 37, "TEXCOORD_0" : 38, "NORMAL" : 39}, "indices" : 36, "mode" : 4}], "name" : ""}, {"primitives" : [{"attributes" : {"POSITION" : 41, "TEXCOORD_0" : 42, "NORMAL" : 43}, "indices" : 40, "mode" : 4}], "name" : ""}], "nodes" : [{"mesh" : 0, "name" : "object_1"}, {"mesh" : 1, "name" : "object_2"}, {"mesh" : 2, "name" : "object_3"}, {"mesh" : 3, "name" : "object_4"}, {"mesh" : 4, "name" : "object_5"}, {"mesh" : 5, "name" : "object_6"}, {"mesh" : 6, "name" : "object_7"}, {"mesh" : 7, "name" : "object_8"}, {"mesh" : 8, "name" : "object_9"}, {"mesh" : 9, "name" : "object_10"}, {"mesh" : 10, "name" : "object_11"}], "scene" : 0, "scenes" : [{"nodes" : [0, 1, 2, 3, 4, 5, 6, 7, 8, 9, 10]}]}